999
"DXF R12 Output" (www.mydxf.blogspot.com)
 0 
SECTION
 2 
HEADER
 9 
$ACADVER
 1 
AC1009
 9 
$EXTMIN
 10 
 0 
 20 
 0 
 9 
$EXTMAX
 10 
 8.5 
 20 
 11 
 0 
ENDSEC
 0 
SECTION
 2 
ENTITIES
0
POLYLINE
8
Layer 1
62
7
70
0
10
0.000000
20
0.000000
66
1
0
VERTEX
8
Layer 1
10
3.025321
20
297.147472
70
0
0
VERTEX
8
Layer 1
10
157.025127
20
297.147472
70
0
0
VERTEX
8
Layer 1
10
158.173177
20
296.919110
70
0
0
VERTEX
8
Layer 1
10
159.146445
20
296.268793
70
0
0
VERTEX
8
Layer 1
10
159.796763
20
295.295524
70
0
0
VERTEX
8
Layer 1
10
160.025123
20
294.147476
70
0
0
VERTEX
8
Layer 1
10
160.025123
20
210.147581
70
0
0
VERTEX
8
Layer 1
10
159.796763
20
208.999532
70
0
0
VERTEX
8
Layer 1
10
159.146445
20
208.026263
70
0
0
VERTEX
8
Layer 1
10
158.173177
20
207.375946
70
0
0
VERTEX
8
Layer 1
10
157.025127
20
207.147585
70
0
0
VERTEX
8
Layer 1
10
3.025321
20
207.147585
70
0
0
VERTEX
8
Layer 1
10
1.877273
20
207.375946
70
0
0
VERTEX
8
Layer 1
10
0.904004
20
208.026263
70
0
0
VERTEX
8
Layer 1
10
0.253687
20
208.999532
70
0
0
VERTEX
8
Layer 1
10
0.025325
20
210.147581
70
0
0
VERTEX
8
Layer 1
10
0.025325
20
294.147476
70
0
0
VERTEX
8
Layer 1
10
0.253687
20
295.295524
70
0
0
VERTEX
8
Layer 1
10
0.904004
20
296.268793
70
0
0
VERTEX
8
Layer 1
10
1.877273
20
296.919110
70
0
0
VERTEX
8
Layer 1
10
3.025321
20
297.147472
70
0
0
VERTEX
8
Layer 1
10
3.025321
20
297.147472
70
0
0
SEQEND
8
Layer 1
0
POLYLINE
8
Layer 1
62
7
70
0
10
0.000000
20
0.000000
66
1
0
VERTEX
8
Layer 1
10
20.689820
20
266.949016
70
0
0
VERTEX
8
Layer 1
10
88.689734
20
266.949016
70
0
0
VERTEX
8
Layer 1
10
88.689734
20
236.949054
70
0
0
VERTEX
8
Layer 1
10
20.689820
20
236.949054
70
0
0
VERTEX
8
Layer 1
10
20.689820
20
266.949016
70
0
0
SEQEND
8
Layer 1
0
POLYLINE
8
Layer 1
62
7
70
0
10
0.000000
20
0.000000
66
1
0
VERTEX
8
Layer 1
10
110.355091
20
244.985336
70
0
0
VERTEX
8
Layer 1
10
109.159297
20
244.895746
70
0
0
VERTEX
8
Layer 1
10
108.009313
20
244.634075
70
0
0
VERTEX
8
Layer 1
10
106.921079
20
244.210975
70
0
0
VERTEX
8
Layer 1
10
105.910535
20
243.637095
70
0
0
VERTEX
8
Layer 1
10
104.993621
20
242.923088
70
0
0
VERTEX
8
Layer 1
10
104.186278
20
242.079604
70
0
0
VERTEX
8
Layer 1
10
103.504445
20
241.117294
70
0
0
VERTEX
8
Layer 1
10
102.964064
20
240.046810
70
0
0
VERTEX
8
Layer 1
10
102.589225
20
238.907756
70
0
0
VERTEX
8
Layer 1
10
102.390897
20
237.745172
70
0
0
VERTEX
8
Layer 1
10
102.365342
20
236.577861
70
0
0
VERTEX
8
Layer 1
10
102.508819
20
235.424626
70
0
0
VERTEX
8
Layer 1
10
102.817587
20
234.304270
70
0
0
VERTEX
8
Layer 1
10
103.287908
20
233.235594
70
0
0
VERTEX
8
Layer 1
10
103.916040
20
232.237404
70
0
0
VERTEX
8
Layer 1
10
104.698244
20
231.328500
70
0
0
VERTEX
8
Layer 1
10
105.607148
20
230.546296
70
0
0
VERTEX
8
Layer 1
10
106.605339
20
229.918164
70
0
0
VERTEX
8
Layer 1
10
107.674014
20
229.447843
70
0
0
VERTEX
8
Layer 1
10
108.794370
20
229.139075
70
0
0
VERTEX
8
Layer 1
10
109.947606
20
228.995598
70
0
0
VERTEX
8
Layer 1
10
111.114916
20
229.021153
70
0
0
VERTEX
8
Layer 1
10
112.277500
20
229.219480
70
0
0
VERTEX
8
Layer 1
10
113.416554
20
229.594320
70
0
0
VERTEX
8
Layer 1
10
114.487039
20
230.134701
70
0
0
VERTEX
8
Layer 1
10
115.449348
20
230.816533
70
0
0
VERTEX
8
Layer 1
10
116.292832
20
231.623876
70
0
0
VERTEX
8
Layer 1
10
117.006840
20
232.540790
70
0
0
VERTEX
8
Layer 1
10
117.580719
20
233.551335
70
0
0
VERTEX
8
Layer 1
10
118.003819
20
234.639569
70
0
0
VERTEX
8
Layer 1
10
118.265490
20
235.789553
70
0
0
VERTEX
8
Layer 1
10
118.355081
20
236.985347
70
0
0
VERTEX
8
Layer 1
10
118.199943
20
238.553356
70
0
0
VERTEX
8
Layer 1
10
117.746118
20
240.046810
70
0
0
VERTEX
8
Layer 1
10
117.010989
20
241.423745
70
0
0
VERTEX
8
Layer 1
10
116.011938
20
242.642193
70
0
0
VERTEX
8
Layer 1
10
114.793489
20
243.641244
70
0
0
VERTEX
8
Layer 1
10
113.416554
20
244.376373
70
0
0
VERTEX
8
Layer 1
10
111.923100
20
244.830199
70
0
0
VERTEX
8
Layer 1
10
110.355091
20
244.985336
70
0
0
VERTEX
8
Layer 1
10
110.355091
20
244.985336
70
0
0
SEQEND
8
Layer 1
0
POLYLINE
8
Layer 1
62
7
70
0
10
0.000000
20
0.000000
66
1
0
VERTEX
8
Layer 1
10
139.537254
20
245.053600
70
0
0
VERTEX
8
Layer 1
10
138.341461
20
244.964009
70
0
0
VERTEX
8
Layer 1
10
137.191476
20
244.702339
70
0
0
VERTEX
8
Layer 1
10
136.103243
20
244.279239
70
0
0
VERTEX
8
Layer 1
10
135.092698
20
243.705359
70
0
0
VERTEX
8
Layer 1
10
134.175784
20
242.991352
70
0
0
VERTEX
8
Layer 1
10
133.368441
20
242.147868
70
0
0
VERTEX
8
Layer 1
10
132.686609
20
241.185558
70
0
0
VERTEX
8
Layer 1
10
132.146228
20
240.115074
70
0
0
VERTEX
8
Layer 1
10
131.771388
20
238.976020
70
0
0
VERTEX
8
Layer 1
10
131.573060
20
237.813436
70
0
0
VERTEX
8
Layer 1
10
131.547505
20
236.646125
70
0
0
VERTEX
8
Layer 1
10
131.690982
20
235.492890
70
0
0
VERTEX
8
Layer 1
10
131.999751
20
234.372534
70
0
0
VERTEX
8
Layer 1
10
132.470071
20
233.303858
70
0
0
VERTEX
8
Layer 1
10
133.098203
20
232.305667
70
0
0
VERTEX
8
Layer 1
10
133.880407
20
231.396764
70
0
0
VERTEX
8
Layer 1
10
134.789311
20
230.614560
70
0
0
VERTEX
8
Layer 1
10
135.787502
20
229.986428
70
0
0
VERTEX
8
Layer 1
10
136.856177
20
229.516107
70
0
0
VERTEX
8
Layer 1
10
137.976533
20
229.207338
70
0
0
VERTEX
8
Layer 1
10
139.129769
20
229.063862
70
0
0
VERTEX
8
Layer 1
10
140.297079
20
229.089417
70
0
0
VERTEX
8
Layer 1
10
141.459664
20
229.287744
70
0
0
VERTEX
8
Layer 1
10
142.598717
20
229.662584
70
0
0
VERTEX
8
Layer 1
10
143.669202
20
230.202965
70
0
0
VERTEX
8
Layer 1
10
144.631512
20
230.884797
70
0
0
VERTEX
8
Layer 1
10
145.474996
20
231.692140
70
0
0
VERTEX
8
Layer 1
10
146.189003
20
232.609054
70
0
0
VERTEX
8
Layer 1
10
146.762882
20
233.619599
70
0
0
VERTEX
8
Layer 1
10
147.185982
20
234.707833
70
0
0
VERTEX
8
Layer 1
10
147.447653
20
235.857817
70
0
0
VERTEX
8
Layer 1
10
147.537244
20
237.053610
70
0
0
VERTEX
8
Layer 1
10
147.382106
20
238.621619
70
0
0
VERTEX
8
Layer 1
10
146.928281
20
240.115074
70
0
0
VERTEX
8
Layer 1
10
146.193152
20
241.492009
70
0
0
VERTEX
8
Layer 1
10
145.194101
20
242.710457
70
0
0
VERTEX
8
Layer 1
10
143.975652
20
243.709508
70
0
0
VERTEX
8
Layer 1
10
142.598717
20
244.444637
70
0
0
VERTEX
8
Layer 1
10
141.105263
20
244.898463
70
0
0
VERTEX
8
Layer 1
10
139.537254
20
245.053600
70
0
0
VERTEX
8
Layer 1
10
139.537254
20
245.053600
70
0
0
SEQEND
8
Layer 1
0
POLYLINE
8
Layer 1
62
7
70
0
10
0.000000
20
0.000000
66
1
0
VERTEX
8
Layer 1
10
7.619662
20
217.443513
70
0
0
VERTEX
8
Layer 1
10
6.739996
20
217.311790
70
0
0
VERTEX
8
Layer 1
10
5.952955
20
216.937923
70
0
0
VERTEX
8
Layer 1
10
5.306357
20
216.353864
70
0
0
VERTEX
8
Layer 1
10
4.848028
20
215.591566
70
0
0
VERTEX
8
Layer 1
10
4.633090
20
214.728452
70
0
0
VERTEX
8
Layer 1
10
4.677310
20
213.858247
70
0
0
VERTEX
8
Layer 1
10
4.969469
20
213.037360
70
0
0
VERTEX
8
Layer 1
10
5.498345
20
212.322200
70
0
0
VERTEX
8
Layer 1
10
6.213505
20
211.793323
70
0
0
VERTEX
8
Layer 1
10
7.034392
20
211.501165
70
0
0
VERTEX
8
Layer 1
10
7.904597
20
211.456945
70
0
0
VERTEX
8
Layer 1
10
8.767712
20
211.671881
70
0
0
VERTEX
8
Layer 1
10
9.530009
20
212.130212
70
0
0
VERTEX
8
Layer 1
10
10.114068
20
212.776808
70
0
0
VERTEX
8
Layer 1
10
10.487936
20
213.563850
70
0
0
VERTEX
8
Layer 1
10
10.619659
20
214.443517
70
0
0
VERTEX
8
Layer 1
10
10.391298
20
215.591566
70
0
0
VERTEX
8
Layer 1
10
9.740981
20
216.564834
70
0
0
VERTEX
8
Layer 1
10
8.767712
20
217.215152
70
0
0
VERTEX
8
Layer 1
10
7.619662
20
217.443513
70
0
0
VERTEX
8
Layer 1
10
7.619662
20
217.443513
70
0
0
SEQEND
8
Layer 1
0
POLYLINE
8
Layer 1
62
7
70
0
10
0.000000
20
0.000000
66
1
0
VERTEX
8
Layer 1
10
153.142427
20
292.540101
70
0
0
VERTEX
8
Layer 1
10
152.262760
20
292.408378
70
0
0
VERTEX
8
Layer 1
10
151.475718
20
292.034510
70
0
0
VERTEX
8
Layer 1
10
150.829122
20
291.450451
70
0
0
VERTEX
8
Layer 1
10
150.370792
20
290.688154
70
0
0
VERTEX
8
Layer 1
10
150.155855
20
289.825039
70
0
0
VERTEX
8
Layer 1
10
150.200075
20
288.954834
70
0
0
VERTEX
8
Layer 1
10
150.492233
20
288.133947
70
0
0
VERTEX
8
Layer 1
10
151.021110
20
287.418787
70
0
0
VERTEX
8
Layer 1
10
151.736270
20
286.889911
70
0
0
VERTEX
8
Layer 1
10
152.557157
20
286.597752
70
0
0
VERTEX
8
Layer 1
10
153.427362
20
286.553532
70
0
0
VERTEX
8
Layer 1
10
154.290476
20
286.768470
70
0
0
VERTEX
8
Layer 1
10
155.052774
20
287.226799
70
0
0
VERTEX
8
Layer 1
10
155.636833
20
287.873396
70
0
0
VERTEX
8
Layer 1
10
156.010701
20
288.660438
70
0
0
VERTEX
8
Layer 1
10
156.142423
20
289.540104
70
0
0
VERTEX
8
Layer 1
10
155.914063
20
290.688154
70
0
0
VERTEX
8
Layer 1
10
155.263744
20
291.661423
70
0
0
VERTEX
8
Layer 1
10
154.290476
20
292.311740
70
0
0
VERTEX
8
Layer 1
10
153.142427
20
292.540101
70
0
0
VERTEX
8
Layer 1
10
153.142427
20
292.540101
70
0
0
SEQEND
8
Layer 1
0
POLYLINE
8
Layer 1
62
7
70
0
10
0.000000
20
0.000000
66
1
0
VERTEX
8
Layer 1
10
8.055450
20
292.540100
70
0
0
VERTEX
8
Layer 1
10
7.175783
20
292.408377
70
0
0
VERTEX
8
Layer 1
10
6.388741
20
292.034509
70
0
0
VERTEX
8
Layer 1
10
5.742145
20
291.450450
70
0
0
VERTEX
8
Layer 1
10
5.283814
20
290.688153
70
0
0
VERTEX
8
Layer 1
10
5.068878
20
289.825038
70
0
0
VERTEX
8
Layer 1
10
5.113097
20
288.954833
70
0
0
VERTEX
8
Layer 1
10
5.405256
20
288.133947
70
0
0
VERTEX
8
Layer 1
10
5.934133
20
287.418786
70
0
0
VERTEX
8
Layer 1
10
6.649293
20
286.889910
70
0
0
VERTEX
8
Layer 1
10
7.470180
20
286.597752
70
0
0
VERTEX
8
Layer 1
10
8.340385
20
286.553531
70
0
0
VERTEX
8
Layer 1
10
9.203498
20
286.768469
70
0
0
VERTEX
8
Layer 1
10
9.965797
20
287.226799
70
0
0
VERTEX
8
Layer 1
10
10.549856
20
287.873395
70
0
0
VERTEX
8
Layer 1
10
10.923723
20
288.660438
70
0
0
VERTEX
8
Layer 1
10
11.055446
20
289.540103
70
0
0
VERTEX
8
Layer 1
10
10.827085
20
290.688153
70
0
0
VERTEX
8
Layer 1
10
10.176767
20
291.661422
70
0
0
VERTEX
8
Layer 1
10
9.203498
20
292.311739
70
0
0
VERTEX
8
Layer 1
10
8.055450
20
292.540100
70
0
0
VERTEX
8
Layer 1
10
8.055450
20
292.540100
70
0
0
SEQEND
8
Layer 1
0
POLYLINE
8
Layer 1
62
7
70
0
10
0.000000
20
0.000000
66
1
0
VERTEX
8
Layer 1
10
152.588628
20
217.758805
70
0
0
VERTEX
8
Layer 1
10
151.708961
20
217.627082
70
0
0
VERTEX
8
Layer 1
10
150.921919
20
217.253215
70
0
0
VERTEX
8
Layer 1
10
150.275323
20
216.669155
70
0
0
VERTEX
8
Layer 1
10
149.816992
20
215.906857
70
0
0
VERTEX
8
Layer 1
10
149.602055
20
215.043743
70
0
0
VERTEX
8
Layer 1
10
149.646276
20
214.173538
70
0
0
VERTEX
8
Layer 1
10
149.938434
20
213.352651
70
0
0
VERTEX
8
Layer 1
10
150.467310
20
212.637491
70
0
0
VERTEX
8
Layer 1
10
151.182471
20
212.108615
70
0
0
VERTEX
8
Layer 1
10
152.003358
20
211.816456
70
0
0
VERTEX
8
Layer 1
10
152.873562
20
211.772236
70
0
0
VERTEX
8
Layer 1
10
153.736676
20
211.987173
70
0
0
VERTEX
8
Layer 1
10
154.498974
20
212.445504
70
0
0
VERTEX
8
Layer 1
10
155.083034
20
213.092100
70
0
0
VERTEX
8
Layer 1
10
155.456901
20
213.879142
70
0
0
VERTEX
8
Layer 1
10
155.588624
20
214.758809
70
0
0
VERTEX
8
Layer 1
10
155.360263
20
215.906857
70
0
0
VERTEX
8
Layer 1
10
154.709945
20
216.880126
70
0
0
VERTEX
8
Layer 1
10
153.736676
20
217.530444
70
0
0
VERTEX
8
Layer 1
10
152.588628
20
217.758805
70
0
0
VERTEX
8
Layer 1
10
152.588628
20
217.758805
70
0
0
SEQEND
8
Layer 1
0
POLYLINE
8
Layer 1
62
7
70
0
10
0.000000
20
0.000000
66
1
0
VERTEX
8
Layer 1
10
116.234582
20
280.613352
70
0
0
VERTEX
8
Layer 1
10
115.975170
20
280.567364
70
0
0
VERTEX
8
Layer 1
10
115.596891
20
280.520333
70
0
0
VERTEX
8
Layer 1
10
114.419194
20
280.378222
70
0
0
VERTEX
8
Layer 1
10
114.112741
20
280.284694
70
0
0
VERTEX
8
Layer 1
10
113.028576
20
279.859915
70
0
0
VERTEX
8
Layer 1
10
112.615675
20
279.651659
70
0
0
VERTEX
8
Layer 1
10
112.462710
20
279.536936
70
0
0
VERTEX
8
Layer 1
10
112.365614
20
279.463559
70
0
0
VERTEX
8
Layer 1
10
111.378073
20
278.484292
70
0
0
VERTEX
8
Layer 1
10
111.309850
20
278.362853
70
0
0
VERTEX
8
Layer 1
10
111.185286
20
278.134444
70
0
0
VERTEX
8
Layer 1
10
111.090234
20
277.936523
70
0
0
VERTEX
8
Layer 1
10
111.089723
20
277.936523
70
0
0
VERTEX
8
Layer 1
10
110.997737
20
277.457999
70
0
0
VERTEX
8
Layer 1
10
111.021099
20
276.474068
70
0
0
VERTEX
8
Layer 1
10
111.331045
20
275.770250
70
0
0
VERTEX
8
Layer 1
10
112.283454
20
274.863330
70
0
0
VERTEX
8
Layer 1
10
113.590353
20
273.924370
70
0
0
VERTEX
8
Layer 1
10
113.737632
20
273.818438
70
0
0
VERTEX
8
Layer 1
10
113.994974
20
273.634470
70
0
0
VERTEX
8
Layer 1
10
114.702434
20
273.164216
70
0
0
VERTEX
8
Layer 1
10
115.309105
20
272.761139
70
0
0
VERTEX
8
Layer 1
10
115.579376
20
272.574588
70
0
0
VERTEX
8
Layer 1
10
115.811410
20
272.445914
70
0
0
VERTEX
8
Layer 1
10
115.887426
20
272.375119
70
0
0
VERTEX
8
Layer 1
10
115.957693
20
272.304845
70
0
0
VERTEX
8
Layer 1
10
116.556621
20
271.917789
70
0
0
VERTEX
8
Layer 1
10
116.615006
20
271.882131
70
0
0
VERTEX
8
Layer 1
10
116.618839
20
271.881613
70
0
0
VERTEX
8
Layer 1
10
116.683485
20
271.958095
70
0
0
VERTEX
8
Layer 1
10
116.704182
20
271.977736
70
0
0
VERTEX
8
Layer 1
10
116.901593
20
272.180824
70
0
0
VERTEX
8
Layer 1
10
116.947586
20
272.221126
70
0
0
VERTEX
8
Layer 1
10
117.133102
20
272.577693
70
0
0
VERTEX
8
Layer 1
10
117.144601
20
272.597335
70
0
0
VERTEX
8
Layer 1
10
116.883630
20
272.752363
70
0
0
VERTEX
8
Layer 1
10
116.566331
20
272.962169
70
0
0
VERTEX
8
Layer 1
10
114.688930
20
274.217388
70
0
0
VERTEX
8
Layer 1
10
114.586085
20
274.276823
70
0
0
VERTEX
8
Layer 1
10
114.483239
20
274.335215
70
0
0
VERTEX
8
Layer 1
10
114.138037
20
274.581711
70
0
0
VERTEX
8
Layer 1
10
113.589752
20
274.979102
70
0
0
VERTEX
8
Layer 1
10
113.381494
20
275.121728
70
0
0
VERTEX
8
Layer 1
10
113.269322
20
275.193045
70
0
0
VERTEX
8
Layer 1
10
112.888988
20
275.502068
70
0
0
VERTEX
8
Layer 1
10
111.997046
20
276.358863
70
0
0
VERTEX
8
Layer 1
10
111.891135
20
277.046675
70
0
0
VERTEX
8
Layer 1
10
112.017743
20
277.819235
70
0
0
VERTEX
8
Layer 1
10
112.185170
20
278.079169
70
0
0
VERTEX
8
Layer 1
10
112.229119
20
278.132396
70
0
0
VERTEX
8
Layer 1
10
112.936054
20
278.812455
70
0
0
VERTEX
8
Layer 1
10
113.525694
20
279.153519
70
0
0
VERTEX
8
Layer 1
10
113.928770
20
279.344722
70
0
0
VERTEX
8
Layer 1
10
114.353029
20
279.463057
70
0
0
VERTEX
8
Layer 1
10
114.817607
20
279.597415
70
0
0
VERTEX
8
Layer 1
10
117.938347
20
279.597415
70
0
0
VERTEX
8
Layer 1
10
118.357969
20
279.487349
70
0
0
VERTEX
8
Layer 1
10
118.806002
20
279.370044
70
0
0
VERTEX
8
Layer 1
10
118.927500
20
279.319921
70
0
0
VERTEX
8
Layer 1
10
119.019486
20
279.504923
70
0
0
VERTEX
8
Layer 1
10
119.155395
20
279.836169
70
0
0
VERTEX
8
Layer 1
10
119.263350
20
280.114186
70
0
0
VERTEX
8
Layer 1
10
118.735211
20
280.282135
70
0
0
VERTEX
8
Layer 1
10
118.357981
20
280.392723
70
0
0
VERTEX
8
Layer 1
10
116.981825
20
280.520364
70
0
0
VERTEX
8
Layer 1
10
116.495553
20
280.567396
70
0
0
VERTEX
8
Layer 1
10
116.236651
20
280.613384
70
0
0
VERTEX
8
Layer 1
10
116.234582
20
280.613352
70
0
0
SEQEND
8
Layer 1
0
POLYLINE
8
Layer 1
62
7
70
0
10
0.000000
20
0.000000
66
1
0
VERTEX
8
Layer 1
10
134.216995
20
280.073851
70
0
0
VERTEX
8
Layer 1
10
133.849052
20
280.056791
70
0
0
VERTEX
8
Layer 1
10
133.156221
20
279.850998
70
0
0
VERTEX
8
Layer 1
10
132.488408
20
279.349858
70
0
0
VERTEX
8
Layer 1
10
132.070346
20
278.979338
70
0
0
VERTEX
8
Layer 1
10
132.027930
20
278.902856
70
0
0
VERTEX
8
Layer 1
10
131.949360
20
278.777283
70
0
0
VERTEX
8
Layer 1
10
131.178862
20
277.846592
70
0
0
VERTEX
8
Layer 1
10
130.990241
20
277.603195
70
0
0
VERTEX
8
Layer 1
10
130.531872
20
276.999616
70
0
0
VERTEX
8
Layer 1
10
130.281762
20
276.670955
70
0
0
VERTEX
8
Layer 1
10
130.092104
20
276.413606
70
0
0
VERTEX
8
Layer 1
10
129.894182
20
276.131970
70
0
0
VERTEX
8
Layer 1
10
129.400679
20
275.472580
70
0
0
VERTEX
8
Layer 1
10
129.200162
20
275.190944
70
0
0
VERTEX
8
Layer 1
10
128.999659
20
274.910342
70
0
0
VERTEX
8
Layer 1
10
128.704080
20
274.520185
70
0
0
VERTEX
8
Layer 1
10
128.816761
20
274.420970
70
0
0
VERTEX
8
Layer 1
10
129.093753
20
274.124349
70
0
0
VERTEX
8
Layer 1
10
129.284445
20
273.910925
70
0
0
VERTEX
8
Layer 1
10
129.328906
20
273.866489
70
0
0
VERTEX
8
Layer 1
10
129.361995
20
273.905251
70
0
0
VERTEX
8
Layer 1
10
129.435327
20
274.031856
70
0
0
VERTEX
8
Layer 1
10
129.494223
20
274.121770
70
0
0
VERTEX
8
Layer 1
10
129.600646
20
274.234419
70
0
0
VERTEX
8
Layer 1
10
129.789267
20
274.510888
70
0
0
VERTEX
8
Layer 1
10
129.977888
20
274.791491
70
0
0
VERTEX
8
Layer 1
10
130.095681
20
274.943419
70
0
0
VERTEX
8
Layer 1
10
130.236764
20
275.120669
70
0
0
VERTEX
8
Layer 1
10
131.013456
20
276.184169
70
0
0
VERTEX
8
Layer 1
10
131.132783
20
276.341265
70
0
0
VERTEX
8
Layer 1
10
132.240211
20
277.778384
70
0
0
VERTEX
8
Layer 1
10
132.405570
20
277.988190
70
0
0
VERTEX
8
Layer 1
10
133.525404
20
279.075977
70
0
0
VERTEX
8
Layer 1
10
133.678370
20
279.168475
70
0
0
VERTEX
8
Layer 1
10
133.678899
20
279.169004
70
0
0
VERTEX
8
Layer 1
10
133.678899
20
279.169533
70
0
0
VERTEX
8
Layer 1
10
133.678899
20
279.170063
70
0
0
VERTEX
8
Layer 1
10
133.679428
20
279.170592
70
0
0
VERTEX
8
Layer 1
10
133.679958
20
279.171121
70
0
0
VERTEX
8
Layer 1
10
134.268038
20
279.206257
70
0
0
VERTEX
8
Layer 1
10
134.855598
20
279.168016
70
0
0
VERTEX
8
Layer 1
10
134.856127
20
279.167487
70
0
0
VERTEX
8
Layer 1
10
134.856656
20
279.166957
70
0
0
VERTEX
8
Layer 1
10
134.857185
20
279.166428
70
0
0
VERTEX
8
Layer 1
10
134.857185
20
279.165899
70
0
0
VERTEX
8
Layer 1
10
134.857185
20
279.165396
70
0
0
VERTEX
8
Layer 1
10
134.857185
20
279.164867
70
0
0
VERTEX
8
Layer 1
10
135.009627
20
279.093551
70
0
0
VERTEX
8
Layer 1
10
135.721882
20
278.628940
70
0
0
VERTEX
8
Layer 1
10
136.394047
20
277.818179
70
0
0
VERTEX
8
Layer 1
10
136.837433
20
276.771216
70
0
0
VERTEX
8
Layer 1
10
136.879337
20
276.645120
70
0
0
VERTEX
8
Layer 1
10
137.025075
20
275.164499
70
0
0
VERTEX
8
Layer 1
10
136.946436
20
273.329805
70
0
0
VERTEX
8
Layer 1
10
136.986782
20
273.308900
70
0
0
VERTEX
8
Layer 1
10
137.179343
20
273.205944
70
0
0
VERTEX
8
Layer 1
10
137.436372
20
273.050523
70
0
0
VERTEX
8
Layer 1
10
137.724773
20
272.859143
70
0
0
VERTEX
8
Layer 1
10
137.792834
20
273.070236
70
0
0
VERTEX
8
Layer 1
10
137.929891
20
274.276803
70
0
0
VERTEX
8
Layer 1
10
137.948544
20
275.590932
70
0
0
VERTEX
8
Layer 1
10
137.783174
20
276.764502
70
0
0
VERTEX
8
Layer 1
10
137.782645
20
276.765031
70
0
0
VERTEX
8
Layer 1
10
137.782116
20
276.765031
70
0
0
VERTEX
8
Layer 1
10
137.781587
20
276.765031
70
0
0
VERTEX
8
Layer 1
10
137.781058
20
276.765560
70
0
0
VERTEX
8
Layer 1
10
137.689073
20
277.069933
70
0
0
VERTEX
8
Layer 1
10
137.587248
20
277.374823
70
0
0
VERTEX
8
Layer 1
10
137.586719
20
277.374823
70
0
0
VERTEX
8
Layer 1
10
137.586189
20
277.375352
70
0
0
VERTEX
8
Layer 1
10
137.543264
20
277.446669
70
0
0
VERTEX
8
Layer 1
10
137.099881
20
278.327750
70
0
0
VERTEX
8
Layer 1
10
136.976850
20
278.539108
70
0
0
VERTEX
8
Layer 1
10
136.215655
20
279.368513
70
0
0
VERTEX
8
Layer 1
10
136.034789
20
279.544729
70
0
0
VERTEX
8
Layer 1
10
135.988285
20
279.581418
70
0
0
VERTEX
8
Layer 1
10
135.716990
20
279.718875
70
0
0
VERTEX
8
Layer 1
10
135.351119
20
279.890441
70
0
0
VERTEX
8
Layer 1
10
135.184202
20
279.963310
70
0
0
VERTEX
8
Layer 1
10
134.217855
20
280.073898
70
0
0
VERTEX
8
Layer 1
10
134.217326
20
280.073898
70
0
0
VERTEX
8
Layer 1
10
134.217061
20
280.073900
70
0
0
SEQEND
8
Layer 1
0
POLYLINE
8
Layer 1
62
7
70
0
10
0.000000
20
0.000000
66
1
0
VERTEX
8
Layer 1
10
119.942893
20
279.786014
70
0
0
VERTEX
8
Layer 1
10
119.931383
20
279.758625
70
0
0
VERTEX
8
Layer 1
10
119.910693
20
279.713146
70
0
0
VERTEX
8
Layer 1
10
119.929346
20
279.698681
70
0
0
VERTEX
8
Layer 1
10
119.911725
20
279.608244
70
0
0
VERTEX
8
Layer 1
10
119.810927
20
279.342628
70
0
0
VERTEX
8
Layer 1
10
119.639871
20
279.006214
70
0
0
VERTEX
8
Layer 1
10
119.629658
20
278.996927
70
0
0
VERTEX
8
Layer 1
10
119.972280
20
278.762834
70
0
0
VERTEX
8
Layer 1
10
120.093777
20
278.689456
70
0
0
VERTEX
8
Layer 1
10
120.618810
20
278.208349
70
0
0
VERTEX
8
Layer 1
10
121.233248
20
277.526222
70
0
0
VERTEX
8
Layer 1
10
121.294190
20
277.436307
70
0
0
VERTEX
8
Layer 1
10
121.832140
20
276.645659
70
0
0
VERTEX
8
Layer 1
10
122.390249
20
275.497410
70
0
0
VERTEX
8
Layer 1
10
122.583521
20
275.043175
70
0
0
VERTEX
8
Layer 1
10
122.677551
20
274.749653
70
0
0
VERTEX
8
Layer 1
10
122.737979
20
274.605477
70
0
0
VERTEX
8
Layer 1
10
122.740625
20
274.605477
70
0
0
VERTEX
8
Layer 1
10
122.741154
20
274.605477
70
0
0
VERTEX
8
Layer 1
10
122.741684
20
274.604947
70
0
0
VERTEX
8
Layer 1
10
122.742213
20
274.604418
70
0
0
VERTEX
8
Layer 1
10
122.742742
20
274.603889
70
0
0
VERTEX
8
Layer 1
10
122.836259
20
274.335173
70
0
0
VERTEX
8
Layer 1
10
122.932842
20
274.018396
70
0
0
VERTEX
8
Layer 1
10
123.028407
20
273.689735
70
0
0
VERTEX
8
Layer 1
10
123.117836
20
273.385361
70
0
0
VERTEX
8
Layer 1
10
123.118365
20
273.384832
70
0
0
VERTEX
8
Layer 1
10
123.359699
20
272.398846
70
0
0
VERTEX
8
Layer 1
10
123.455261
20
272.041245
70
0
0
VERTEX
8
Layer 1
10
123.480979
20
271.840904
70
0
0
VERTEX
8
Layer 1
10
123.328658
20
271.749275
70
0
0
VERTEX
8
Layer 1
10
123.140037
20
271.696570
70
0
0
VERTEX
8
Layer 1
10
122.904910
20
271.625774
70
0
0
VERTEX
8
Layer 1
10
122.009355
20
271.261457
70
0
0
VERTEX
8
Layer 1
10
121.279167
20
270.776215
70
0
0
VERTEX
8
Layer 1
10
121.409392
20
270.633071
70
0
0
VERTEX
8
Layer 1
10
121.553566
20
270.501298
70
0
0
VERTEX
8
Layer 1
10
121.717901
20
270.373656
70
0
0
VERTEX
8
Layer 1
10
121.898767
20
270.237231
70
0
0
VERTEX
8
Layer 1
10
121.944760
20
270.196927
70
0
0
VERTEX
8
Layer 1
10
122.596401
20
270.594320
70
0
0
VERTEX
8
Layer 1
10
122.862024
20
270.717312
70
0
0
VERTEX
8
Layer 1
10
124.492929
20
270.943137
70
0
0
VERTEX
8
Layer 1
10
124.881020
20
270.903344
70
0
0
VERTEX
8
Layer 1
10
125.272214
20
270.800504
70
0
0
VERTEX
8
Layer 1
10
125.565737
20
270.712140
70
0
0
VERTEX
8
Layer 1
10
125.565737
20
270.711611
70
0
0
VERTEX
8
Layer 1
10
125.565737
20
270.711082
70
0
0
VERTEX
8
Layer 1
10
125.566795
20
270.710553
70
0
0
VERTEX
8
Layer 1
10
125.566795
20
270.710050
70
0
0
VERTEX
8
Layer 1
10
125.566795
20
270.709521
70
0
0
VERTEX
8
Layer 1
10
125.566795
20
270.708992
70
0
0
VERTEX
8
Layer 1
10
125.566795
20
270.708462
70
0
0
VERTEX
8
Layer 1
10
125.567324
20
270.706928
70
0
0
VERTEX
8
Layer 1
10
125.743542
20
270.622699
70
0
0
VERTEX
8
Layer 1
10
126.520246
20
270.143141
70
0
0
VERTEX
8
Layer 1
10
126.599838
20
270.230474
70
0
0
VERTEX
8
Layer 1
10
126.764684
20
270.466636
70
0
0
VERTEX
8
Layer 1
10
126.885159
20
270.652670
70
0
0
VERTEX
8
Layer 1
10
127.026230
20
270.824236
70
0
0
VERTEX
8
Layer 1
10
127.155941
20
270.930168
70
0
0
VERTEX
8
Layer 1
10
127.257255
20
271.026800
70
0
0
VERTEX
8
Layer 1
10
127.296988
20
271.063489
70
0
0
VERTEX
8
Layer 1
10
127.572432
20
271.416956
70
0
0
VERTEX
8
Layer 1
10
127.643721
20
271.547180
70
0
0
VERTEX
8
Layer 1
10
127.714500
20
271.630379
70
0
0
VERTEX
8
Layer 1
10
127.784255
20
271.714098
70
0
0
VERTEX
8
Layer 1
10
127.865381
20
271.861893
70
0
0
VERTEX
8
Layer 1
10
128.088626
20
272.164200
70
0
0
VERTEX
8
Layer 1
10
128.395589
20
272.591563
70
0
0
VERTEX
8
Layer 1
10
128.630716
20
272.912990
70
0
0
VERTEX
8
Layer 1
10
128.894268
20
273.286611
70
0
0
VERTEX
8
Layer 1
10
128.632262
20
273.495900
70
0
0
VERTEX
8
Layer 1
10
128.326856
20
273.754281
70
0
0
VERTEX
8
Layer 1
10
128.222989
20
273.856079
70
0
0
VERTEX
8
Layer 1
10
128.138285
20
273.735670
70
0
0
VERTEX
8
Layer 1
10
127.795663
20
273.259214
70
0
0
VERTEX
8
Layer 1
10
127.501630
20
272.844769
70
0
0
VERTEX
8
Layer 1
10
127.207596
20
272.429291
70
0
0
VERTEX
8
Layer 1
10
126.731135
20
271.780237
70
0
0
VERTEX
8
Layer 1
10
126.602981
20
271.595235
70
0
0
VERTEX
8
Layer 1
10
126.465512
20
271.403515
70
0
0
VERTEX
8
Layer 1
10
126.177675
20
271.390080
70
0
0
VERTEX
8
Layer 1
10
125.827822
20
271.527538
70
0
0
VERTEX
8
Layer 1
10
125.498130
20
271.626753
70
0
0
VERTEX
8
Layer 1
10
125.284712
20
271.698578
70
0
0
VERTEX
8
Layer 1
10
125.284183
20
271.699107
70
0
0
VERTEX
8
Layer 1
10
124.836660
20
271.774036
70
0
0
VERTEX
8
Layer 1
10
124.413435
20
271.811756
70
0
0
VERTEX
8
Layer 1
10
124.399518
20
271.987971
70
0
0
VERTEX
8
Layer 1
10
124.353015
20
272.162121
70
0
0
VERTEX
8
Layer 1
10
124.353015
20
272.162650
70
0
0
VERTEX
8
Layer 1
10
124.351957
20
272.162650
70
0
0
VERTEX
8
Layer 1
10
124.351428
20
272.162650
70
0
0
VERTEX
8
Layer 1
10
124.351428
20
272.163179
70
0
0
VERTEX
8
Layer 1
10
124.350899
20
272.163708
70
0
0
VERTEX
8
Layer 1
10
124.350369
20
272.163708
70
0
0
VERTEX
8
Layer 1
10
124.349840
20
272.163708
70
0
0
VERTEX
8
Layer 1
10
124.349311
20
272.163708
70
0
0
VERTEX
8
Layer 1
10
124.348782
20
272.163708
70
0
0
VERTEX
8
Layer 1
10
124.348253
20
272.164211
70
0
0
VERTEX
8
Layer 1
10
124.347724
20
272.164211
70
0
0
VERTEX
8
Layer 1
10
124.347194
20
272.164211
70
0
0
VERTEX
8
Layer 1
10
124.346665
20
272.164740
70
0
0
VERTEX
8
Layer 1
10
124.346136
20
272.164740
70
0
0
VERTEX
8
Layer 1
10
124.252106
20
272.586419
70
0
0
VERTEX
8
Layer 1
10
124.159097
20
273.007581
70
0
0
VERTEX
8
Layer 1
10
124.158568
20
273.008110
70
0
0
VERTEX
8
Layer 1
10
124.158039
20
273.008640
70
0
0
VERTEX
8
Layer 1
10
124.157509
20
273.008640
70
0
0
VERTEX
8
Layer 1
10
124.156980
20
273.008640
70
0
0
VERTEX
8
Layer 1
10
124.156451
20
273.009169
70
0
0
VERTEX
8
Layer 1
10
124.152615
20
273.009698
70
0
0
VERTEX
8
Layer 1
10
124.152086
20
273.010201
70
0
0
VERTEX
8
Layer 1
10
124.151556
20
273.010201
70
0
0
VERTEX
8
Layer 1
10
124.151556
20
273.010730
70
0
0
VERTEX
8
Layer 1
10
124.090615
20
273.216917
70
0
0
VERTEX
8
Layer 1
10
123.967073
20
273.685107
70
0
0
VERTEX
8
Layer 1
10
123.875088
20
274.031339
70
0
0
VERTEX
8
Layer 1
10
123.835867
20
274.161562
70
0
0
VERTEX
8
Layer 1
10
123.734044
20
274.441132
70
0
0
VERTEX
8
Layer 1
10
123.638993
20
274.722768
70
0
0
VERTEX
8
Layer 1
10
123.545473
20
275.015772
70
0
0
VERTEX
8
Layer 1
10
123.453999
20
275.261752
70
0
0
VERTEX
8
Layer 1
10
123.453470
20
275.262281
70
0
0
VERTEX
8
Layer 1
10
123.452412
20
275.262281
70
0
0
VERTEX
8
Layer 1
10
123.451353
20
275.262281
70
0
0
VERTEX
8
Layer 1
10
123.451353
20
275.262810
70
0
0
VERTEX
8
Layer 1
10
123.450295
20
275.262810
70
0
0
VERTEX
8
Layer 1
10
123.449766
20
275.262810
70
0
0
VERTEX
8
Layer 1
10
123.449237
20
275.263339
70
0
0
VERTEX
8
Layer 1
10
123.448708
20
275.263339
70
0
0
VERTEX
8
Layer 1
10
123.360810
20
275.497433
70
0
0
VERTEX
8
Layer 1
10
123.260010
20
275.732044
70
0
0
VERTEX
8
Layer 1
10
123.188720
20
275.894823
70
0
0
VERTEX
8
Layer 1
10
123.093158
20
276.111865
70
0
0
VERTEX
8
Layer 1
10
123.026470
20
276.210049
70
0
0
VERTEX
8
Layer 1
10
122.745351
20
276.811563
70
0
0
VERTEX
8
Layer 1
10
122.652852
20
276.987779
70
0
0
VERTEX
8
Layer 1
10
122.552052
20
277.140224
70
0
0
VERTEX
8
Layer 1
10
122.480762
20
277.246156
70
0
0
VERTEX
8
Layer 1
10
122.336588
20
277.496786
70
0
0
VERTEX
8
Layer 1
10
122.224418
20
277.675069
70
0
0
VERTEX
8
Layer 1
10
122.023391
20
277.943270
70
0
0
VERTEX
8
Layer 1
10
121.847687
20
278.175297
70
0
0
VERTEX
8
Layer 1
10
120.578003
20
279.393825
70
0
0
VERTEX
8
Layer 1
10
120.465831
20
279.475993
70
0
0
VERTEX
8
Layer 1
10
120.022448
20
279.745743
70
0
0
VERTEX
8
Layer 1
10
119.943366
20
279.786045
70
0
0
VERTEX
8
Layer 1
10
119.557816
20
278.970566
70
0
0
SEQEND
8
Layer 1
0
POLYLINE
8
Layer 1
62
7
70
0
10
0.000000
20
0.000000
66
1
0
VERTEX
8
Layer 1
10
119.893835
20
279.642871
70
0
0
VERTEX
8
Layer 1
10
119.893324
20
279.642354
70
0
0
VERTEX
8
Layer 1
10
119.892813
20
279.641838
70
0
0
VERTEX
8
Layer 1
10
119.892813
20
279.641320
70
0
0
VERTEX
8
Layer 1
10
119.893324
20
279.641320
70
0
0
VERTEX
8
Layer 1
10
119.893835
20
279.641320
70
0
0
VERTEX
8
Layer 1
10
119.894359
20
279.641838
70
0
0
VERTEX
8
Layer 1
10
119.894359
20
279.642354
70
0
0
VERTEX
8
Layer 1
10
119.894359
20
279.642871
70
0
0
VERTEX
8
Layer 1
10
119.893835
20
279.642871
70
0
0
SEQEND
8
Layer 1
0
POLYLINE
8
Layer 1
62
7
70
0
10
0.000000
20
0.000000
66
1
0
VERTEX
8
Layer 1
10
128.664385
20
274.394103
70
0
0
VERTEX
8
Layer 1
10
128.664385
20
274.394103
70
0
0
SEQEND
8
Layer 1
0
POLYLINE
8
Layer 1
62
7
70
0
10
0.000000
20
0.000000
66
1
0
VERTEX
8
Layer 1
10
136.690933
20
272.614228
70
0
0
VERTEX
8
Layer 1
10
136.354373
20
271.905887
70
0
0
VERTEX
8
Layer 1
10
136.179190
20
271.647506
70
0
0
VERTEX
8
Layer 1
10
135.444742
20
270.847778
70
0
0
VERTEX
8
Layer 1
10
134.775133
20
270.333891
70
0
0
VERTEX
8
Layer 1
10
134.716234
20
270.285830
70
0
0
VERTEX
8
Layer 1
10
134.527613
20
270.157674
70
0
0
VERTEX
8
Layer 1
10
134.340026
20
270.049668
70
0
0
VERTEX
8
Layer 1
10
134.338968
20
270.047552
70
0
0
VERTEX
8
Layer 1
10
134.338968
20
270.047022
70
0
0
VERTEX
8
Layer 1
10
134.338968
20
270.046493
70
0
0
VERTEX
8
Layer 1
10
134.338968
20
270.045964
70
0
0
VERTEX
8
Layer 1
10
134.338968
20
270.045435
70
0
0
VERTEX
8
Layer 1
10
134.338438
20
270.044906
70
0
0
VERTEX
8
Layer 1
10
133.973600
20
269.834583
70
0
0
VERTEX
8
Layer 1
10
133.592230
20
269.617025
70
0
0
VERTEX
8
Layer 1
10
133.520430
20
269.581888
70
0
0
VERTEX
8
Layer 1
10
133.280641
20
269.488869
70
0
0
VERTEX
8
Layer 1
10
132.928732
20
269.342110
70
0
0
VERTEX
8
Layer 1
10
132.712721
20
269.251673
70
0
0
VERTEX
8
Layer 1
10
132.383027
20
269.134367
70
0
0
VERTEX
8
Layer 1
10
132.052288
20
269.016032
70
0
0
VERTEX
8
Layer 1
10
131.769113
20
268.921460
70
0
0
VERTEX
8
Layer 1
10
131.486948
20
268.829472
70
0
0
VERTEX
8
Layer 1
10
130.284950
20
268.503395
70
0
0
VERTEX
8
Layer 1
10
129.860181
20
268.393836
70
0
0
VERTEX
8
Layer 1
10
129.388882
20
268.289966
70
0
0
VERTEX
8
Layer 1
10
128.870058
20
268.190750
70
0
0
VERTEX
8
Layer 1
10
128.720648
20
268.204773
70
0
0
VERTEX
8
Layer 1
10
128.681437
20
268.369048
70
0
0
VERTEX
8
Layer 1
10
128.640043
20
268.501855
70
0
0
VERTEX
8
Layer 1
10
128.567732
20
268.697194
70
0
0
VERTEX
8
Layer 1
10
128.472168
20
269.013969
70
0
0
VERTEX
8
Layer 1
10
128.279932
20
269.394307
70
0
0
VERTEX
8
Layer 1
10
128.087694
20
269.726586
70
0
0
VERTEX
8
Layer 1
10
128.021517
20
269.839753
70
0
0
VERTEX
8
Layer 1
10
127.951249
20
269.953447
70
0
0
VERTEX
8
Layer 1
10
127.680453
20
270.258337
70
0
0
VERTEX
8
Layer 1
10
127.649920
20
270.292444
70
0
0
VERTEX
8
Layer 1
10
127.554869
20
270.190646
70
0
0
VERTEX
8
Layer 1
10
127.391582
20
270.027867
70
0
0
VERTEX
8
Layer 1
10
127.200889
20
269.850099
70
0
0
VERTEX
8
Layer 1
10
127.064980
20
269.707991
70
0
0
VERTEX
8
Layer 1
10
127.034958
20
269.681123
70
0
0
VERTEX
8
Layer 1
10
127.314006
20
269.321454
70
0
0
VERTEX
8
Layer 1
10
127.411230
20
269.159190
70
0
0
VERTEX
8
Layer 1
10
127.503214
20
268.971606
70
0
0
VERTEX
8
Layer 1
10
127.595202
20
268.783504
70
0
0
VERTEX
8
Layer 1
10
127.728017
20
268.397480
70
0
0
VERTEX
8
Layer 1
10
127.839071
20
267.492627
70
0
0
VERTEX
8
Layer 1
10
127.728017
20
266.587774
70
0
0
VERTEX
8
Layer 1
10
127.593654
20
266.202269
70
0
0
VERTEX
8
Layer 1
10
127.593125
20
266.201740
70
0
0
VERTEX
8
Layer 1
10
127.500119
20
266.002268
70
0
0
VERTEX
8
Layer 1
10
127.399315
20
265.826053
70
0
0
VERTEX
8
Layer 1
10
127.361628
20
265.774899
70
0
0
VERTEX
8
Layer 1
10
126.974572
20
265.261753
70
0
0
VERTEX
8
Layer 1
10
127.137873
20
265.114476
70
0
0
VERTEX
8
Layer 1
10
127.321845
20
264.954279
70
0
0
VERTEX
8
Layer 1
10
127.416897
20
264.875216
70
0
0
VERTEX
8
Layer 1
10
127.510927
20
264.816301
70
0
0
VERTEX
8
Layer 1
10
127.642184
20
264.743432
70
0
0
VERTEX
8
Layer 1
10
127.687155
20
264.721207
70
0
0
VERTEX
8
Layer 1
10
127.767771
20
264.663846
70
0
0
VERTEX
8
Layer 1
10
128.152768
20
264.435439
70
0
0
VERTEX
8
Layer 1
10
128.478322
20
264.229766
70
0
0
VERTEX
8
Layer 1
10
128.661257
20
264.112460
70
0
0
VERTEX
8
Layer 1
10
128.863830
20
263.995155
70
0
0
VERTEX
8
Layer 1
10
128.950195
20
263.936243
70
0
0
VERTEX
8
Layer 1
10
129.152768
20
263.786380
70
0
0
VERTEX
8
Layer 1
10
129.364641
20
263.656674
70
0
0
VERTEX
8
Layer 1
10
130.074157
20
263.197270
70
0
0
VERTEX
8
Layer 1
10
130.338745
20
263.029323
70
0
0
VERTEX
8
Layer 1
10
130.374387
20
263.076864
70
0
0
VERTEX
8
Layer 1
10
130.544919
20
263.339380
70
0
0
VERTEX
8
Layer 1
10
130.785729
20
263.749690
70
0
0
VERTEX
8
Layer 1
10
130.664743
20
263.838574
70
0
0
VERTEX
8
Layer 1
10
130.459080
20
263.970866
70
0
0
VERTEX
8
Layer 1
10
130.282339
20
264.099541
70
0
0
VERTEX
8
Layer 1
10
130.230213
20
264.135720
70
0
0
VERTEX
8
Layer 1
10
129.874167
20
264.347076
70
0
0
VERTEX
8
Layer 1
10
129.545496
20
264.558433
70
0
0
VERTEX
8
Layer 1
10
129.056642
20
264.887612
70
0
0
VERTEX
8
Layer 1
10
128.901795
20
264.981054
70
0
0
VERTEX
8
Layer 1
10
128.516290
20
265.192705
70
0
0
VERTEX
8
Layer 1
10
128.501880
20
265.200639
70
0
0
VERTEX
8
Layer 1
10
128.186447
20
265.406385
70
0
0
VERTEX
8
Layer 1
10
128.272709
20
265.578115
70
0
0
VERTEX
8
Layer 1
10
128.566232
20
266.279879
70
0
0
VERTEX
8
Layer 1
10
128.638543
20
266.485553
70
0
0
VERTEX
8
Layer 1
10
128.715581
20
266.908264
70
0
0
VERTEX
8
Layer 1
10
128.751226
20
267.305138
70
0
0
VERTEX
8
Layer 1
10
128.939847
20
267.338214
70
0
0
VERTEX
8
Layer 1
10
130.259677
20
267.610033
70
0
0
VERTEX
8
Layer 1
10
130.660682
20
267.708738
70
0
0
VERTEX
8
Layer 1
10
131.014151
20
267.798130
70
0
0
VERTEX
8
Layer 1
10
131.415156
20
267.915436
70
0
0
VERTEX
8
Layer 1
10
131.815650
20
268.032220
70
0
0
VERTEX
8
Layer 1
10
132.097804
20
268.123165
70
0
0
VERTEX
8
Layer 1
10
132.380993
20
268.217214
70
0
0
VERTEX
8
Layer 1
10
132.568579
20
268.288011
70
0
0
VERTEX
8
Layer 1
10
132.898271
20
268.406867
70
0
0
VERTEX
8
Layer 1
10
133.288954
20
268.551560
70
0
0
VERTEX
8
Layer 1
10
133.489458
20
268.640446
70
0
0
VERTEX
8
Layer 1
10
133.489458
20
268.640975
70
0
0
VERTEX
8
Layer 1
10
133.489458
20
268.641505
70
0
0
VERTEX
8
Layer 1
10
133.489458
20
268.643092
70
0
0
VERTEX
8
Layer 1
10
133.641686
20
268.717429
70
0
0
VERTEX
8
Layer 1
10
133.594693
20
268.684871
70
0
0
VERTEX
8
Layer 1
10
133.689985
20
268.734627
70
0
0
VERTEX
8
Layer 1
10
133.913740
20
268.824543
70
0
0
VERTEX
8
Layer 1
10
134.196929
20
268.983190
70
0
0
VERTEX
8
Layer 1
10
135.411841
20
269.696842
70
0
0
VERTEX
8
Layer 1
10
136.397839
20
270.561903
70
0
0
VERTEX
8
Layer 1
10
136.929068
20
271.201656
70
0
0
VERTEX
8
Layer 1
10
137.070149
20
271.399577
70
0
0
VERTEX
8
Layer 1
10
137.174530
20
271.575276
70
0
0
VERTEX
8
Layer 1
10
137.268047
20
271.694655
70
0
0
VERTEX
8
Layer 1
10
137.306758
20
271.744269
70
0
0
VERTEX
8
Layer 1
10
137.440597
20
272.089982
70
0
0
VERTEX
8
Layer 1
10
136.577168
20
272.686845
70
0
0
SEQEND
8
Layer 1
0
POLYLINE
8
Layer 1
62
7
70
0
10
0.000000
20
0.000000
66
1
0
VERTEX
8
Layer 1
10
118.023166
20
272.140802
70
0
0
VERTEX
8
Layer 1
10
117.505504
20
271.318331
70
0
0
VERTEX
8
Layer 1
10
118.071357
20
270.951946
70
0
0
VERTEX
8
Layer 1
10
118.802066
20
270.483240
70
0
0
VERTEX
8
Layer 1
10
119.087835
20
270.293587
70
0
0
VERTEX
8
Layer 1
10
119.250101
20
270.192300
70
0
0
VERTEX
8
Layer 1
10
119.411856
20
270.091012
70
0
0
VERTEX
8
Layer 1
10
119.828884
20
269.810408
70
0
0
VERTEX
8
Layer 1
10
120.156991
20
269.541582
70
0
0
VERTEX
8
Layer 1
10
120.077449
20
269.276594
70
0
0
VERTEX
8
Layer 1
10
119.958122
20
268.994956
70
0
0
VERTEX
8
Layer 1
10
119.864605
20
268.760345
70
0
0
VERTEX
8
Layer 1
10
119.740040
20
268.203273
70
0
0
VERTEX
8
Layer 1
10
119.606711
20
267.681859
70
0
0
VERTEX
8
Layer 1
10
119.606182
20
267.681330
70
0
0
VERTEX
8
Layer 1
10
119.605653
20
267.681330
70
0
0
VERTEX
8
Layer 1
10
119.605124
20
267.680801
70
0
0
VERTEX
8
Layer 1
10
118.637218
20
267.490635
70
0
0
VERTEX
8
Layer 1
10
118.142157
20
267.376941
70
0
0
VERTEX
8
Layer 1
10
117.741149
20
267.265324
70
0
0
VERTEX
8
Layer 1
10
116.586181
20
266.953714
70
0
0
VERTEX
8
Layer 1
10
116.279728
20
266.852947
70
0
0
VERTEX
8
Layer 1
10
116.020315
20
266.761481
70
0
0
VERTEX
8
Layer 1
10
115.737650
20
266.657087
70
0
0
VERTEX
8
Layer 1
10
113.787888
20
265.769287
70
0
0
VERTEX
8
Layer 1
10
113.466462
20
265.591521
70
0
0
VERTEX
8
Layer 1
10
113.290244
20
265.474216
70
0
0
VERTEX
8
Layer 1
10
113.104729
20
265.356913
70
0
0
VERTEX
8
Layer 1
10
112.987448
20
265.274744
70
0
0
VERTEX
8
Layer 1
10
112.739914
20
265.076307
70
0
0
VERTEX
8
Layer 1
10
111.566856
20
263.904286
70
0
0
VERTEX
8
Layer 1
10
111.509492
20
263.797834
70
0
0
VERTEX
8
Layer 1
10
111.188066
20
263.302775
70
0
0
VERTEX
8
Layer 1
10
111.084710
20
263.150330
70
0
0
VERTEX
8
Layer 1
10
111.050089
20
263.101758
70
0
0
VERTEX
8
Layer 1
10
110.970494
20
262.878516
70
0
0
VERTEX
8
Layer 1
10
110.909910
20
262.717801
70
0
0
VERTEX
8
Layer 1
10
111.706265
20
262.362132
70
0
0
VERTEX
8
Layer 1
10
111.735327
20
262.434665
70
0
0
VERTEX
8
Layer 1
10
111.734218
20
262.422730
70
0
0
VERTEX
8
Layer 1
10
111.798353
20
262.587060
70
0
0
VERTEX
8
Layer 1
10
111.991626
20
262.927091
70
0
0
VERTEX
8
Layer 1
10
112.190058
20
263.243866
70
0
0
VERTEX
8
Layer 1
10
112.191116
20
263.243866
70
0
0
VERTEX
8
Layer 1
10
112.192175
20
263.243866
70
0
0
VERTEX
8
Layer 1
10
112.226798
20
263.298645
70
0
0
VERTEX
8
Layer 1
10
112.835553
20
263.983354
70
0
0
VERTEX
8
Layer 1
10
113.360062
20
264.464461
70
0
0
VERTEX
8
Layer 1
10
113.491843
20
264.546630
70
0
0
VERTEX
8
Layer 1
10
113.668572
20
264.688222
70
0
0
VERTEX
8
Layer 1
10
114.335199
20
265.074764
70
0
0
VERTEX
8
Layer 1
10
114.394606
20
265.112483
70
0
0
VERTEX
8
Layer 1
10
114.394606
20
265.113012
70
0
0
VERTEX
8
Layer 1
10
114.395135
20
265.113542
70
0
0
VERTEX
8
Layer 1
10
114.395135
20
265.114071
70
0
0
VERTEX
8
Layer 1
10
115.187860
20
265.497507
70
0
0
VERTEX
8
Layer 1
10
115.243690
20
265.539362
70
0
0
VERTEX
8
Layer 1
10
115.372370
20
265.613260
70
0
0
VERTEX
8
Layer 1
10
115.690179
20
265.731086
70
0
0
VERTEX
8
Layer 1
10
116.092744
20
265.873196
70
0
0
VERTEX
8
Layer 1
10
116.353189
20
265.967245
70
0
0
VERTEX
8
Layer 1
10
116.611568
20
266.059235
70
0
0
VERTEX
8
Layer 1
10
116.965035
20
266.176020
70
0
0
VERTEX
8
Layer 1
10
117.318502
20
266.272651
70
0
0
VERTEX
8
Layer 1
10
117.577928
20
266.342924
70
0
0
VERTEX
8
Layer 1
10
118.025439
20
266.457126
70
0
0
VERTEX
8
Layer 1
10
118.520500
20
266.577014
70
0
0
VERTEX
8
Layer 1
10
118.969058
20
266.673137
70
0
0
VERTEX
8
Layer 1
10
119.424847
20
266.775456
70
0
0
VERTEX
8
Layer 1
10
119.642917
20
266.795088
70
0
0
VERTEX
8
Layer 1
10
119.792266
20
266.508286
70
0
0
VERTEX
8
Layer 1
10
119.862534
20
266.226650
70
0
0
VERTEX
8
Layer 1
10
119.932799
20
266.074721
70
0
0
VERTEX
8
Layer 1
10
120.270245
20
265.368306
70
0
0
VERTEX
8
Layer 1
10
120.361209
20
265.210691
70
0
0
VERTEX
8
Layer 1
10
120.766354
20
264.712016
70
0
0
VERTEX
8
Layer 1
10
120.905880
20
264.882547
70
0
0
VERTEX
8
Layer 1
10
121.053160
20
265.020006
70
0
0
VERTEX
8
Layer 1
10
121.172484
20
265.117158
70
0
0
VERTEX
8
Layer 1
10
121.301672
20
265.220510
70
0
0
VERTEX
8
Layer 1
10
121.408095
20
265.303187
70
0
0
VERTEX
8
Layer 1
10
120.997264
20
265.904698
70
0
0
VERTEX
8
Layer 1
10
120.951782
20
265.967224
70
0
0
VERTEX
8
Layer 1
10
120.848425
20
266.166696
70
0
0
VERTEX
8
Layer 1
10
120.756441
20
266.389419
70
0
0
VERTEX
8
Layer 1
10
120.627393
20
267.540143
70
0
0
VERTEX
8
Layer 1
10
120.766661
20
268.596002
70
0
0
VERTEX
8
Layer 1
10
120.809587
20
268.683335
70
0
0
VERTEX
8
Layer 1
10
121.156337
20
269.373212
70
0
0
VERTEX
8
Layer 1
10
121.281410
20
269.537028
70
0
0
VERTEX
8
Layer 1
10
121.445732
20
269.742183
70
0
0
VERTEX
8
Layer 1
10
121.440626
20
269.746893
70
0
0
VERTEX
8
Layer 1
10
121.378025
20
269.793922
70
0
0
VERTEX
8
Layer 1
10
121.308779
20
269.843537
70
0
0
VERTEX
8
Layer 1
10
121.251417
20
269.882809
70
0
0
VERTEX
8
Layer 1
10
121.197630
20
269.926735
70
0
0
VERTEX
8
Layer 1
10
121.132474
20
269.977890
70
0
0
VERTEX
8
Layer 1
10
121.086481
20
270.016130
70
0
0
VERTEX
8
Layer 1
10
121.016213
20
270.069356
70
0
0
VERTEX
8
Layer 1
10
120.931510
20
270.132403
70
0
0
VERTEX
8
Layer 1
10
120.855495
20
270.178914
70
0
0
VERTEX
8
Layer 1
10
120.766574
20
270.224902
70
0
0
VERTEX
8
Layer 1
10
120.643032
20
270.293635
70
0
0
VERTEX
8
Layer 1
10
120.587713
20
270.357193
70
0
0
VERTEX
8
Layer 1
10
120.358275
20
270.493101
70
0
0
VERTEX
8
Layer 1
10
119.771226
20
270.871373
70
0
0
VERTEX
8
Layer 1
10
119.464262
20
271.072394
70
0
0
VERTEX
8
Layer 1
10
119.121654
20
271.292534
70
0
0
VERTEX
8
Layer 1
10
118.828131
20
271.501308
70
0
0
VERTEX
8
Layer 1
10
118.828131
20
271.501837
70
0
0
VERTEX
8
Layer 1
10
118.828131
20
271.502366
70
0
0
VERTEX
8
Layer 1
10
118.828131
20
271.502896
70
0
0
VERTEX
8
Layer 1
10
118.828131
20
271.503398
70
0
0
VERTEX
8
Layer 1
10
118.828131
20
271.503928
70
0
0
VERTEX
8
Layer 1
10
118.828131
20
271.504430
70
0
0
VERTEX
8
Layer 1
10
118.675167
20
271.598480
70
0
0
VERTEX
8
Layer 1
10
118.474664
20
271.703903
70
0
0
VERTEX
8
Layer 1
10
117.900085
20
272.071290
70
0
0
SEQEND
8
Layer 1
0
POLYLINE
8
Layer 1
62
7
70
0
10
0.000000
20
0.000000
66
1
0
VERTEX
8
Layer 1
10
121.924725
20
264.790055
70
0
0
VERTEX
8
Layer 1
10
121.797606
20
264.661896
70
0
0
VERTEX
8
Layer 1
10
121.651871
20
264.511001
70
0
0
VERTEX
8
Layer 1
10
121.551581
20
264.397831
70
0
0
VERTEX
8
Layer 1
10
121.477739
20
264.304301
70
0
0
VERTEX
8
Layer 1
10
121.354708
20
264.178728
70
0
0
VERTEX
8
Layer 1
10
121.225517
20
264.056260
70
0
0
VERTEX
8
Layer 1
10
121.130466
20
263.927583
70
0
0
VERTEX
8
Layer 1
10
120.785277
20
263.455262
70
0
0
VERTEX
8
Layer 1
10
120.445238
20
262.985008
70
0
0
VERTEX
8
Layer 1
10
120.244734
20
262.702854
70
0
0
VERTEX
8
Layer 1
10
120.056113
20
262.446024
70
0
0
VERTEX
8
Layer 1
10
119.889196
20
262.211413
70
0
0
VERTEX
8
Layer 1
10
119.582758
20
261.783532
70
0
0
VERTEX
8
Layer 1
10
119.515557
20
261.696722
70
0
0
VERTEX
8
Layer 1
10
120.243949
20
261.184529
70
0
0
VERTEX
8
Layer 1
10
120.289912
20
261.249667
70
0
0
VERTEX
8
Layer 1
10
120.490416
20
261.550424
70
0
0
VERTEX
8
Layer 1
10
120.761722
20
261.932828
70
0
0
VERTEX
8
Layer 1
10
120.914685
20
262.125066
70
0
0
VERTEX
8
Layer 1
10
120.996833
20
262.235654
70
0
0
VERTEX
8
Layer 1
10
121.196826
20
262.536408
70
0
0
VERTEX
8
Layer 1
10
121.468645
20
262.916230
70
0
0
VERTEX
8
Layer 1
10
121.656742
20
263.173579
70
0
0
VERTEX
8
Layer 1
10
121.845364
20
263.432476
70
0
0
VERTEX
8
Layer 1
10
122.063105
20
263.641785
70
0
0
VERTEX
8
Layer 1
10
122.433958
20
263.518257
70
0
0
VERTEX
8
Layer 1
10
123.772898
20
263.187528
70
0
0
VERTEX
8
Layer 1
10
124.005565
20
263.102941
70
0
0
VERTEX
8
Layer 1
10
124.129469
20
262.657330
70
0
0
VERTEX
8
Layer 1
10
124.256588
20
262.023262
70
0
0
VERTEX
8
Layer 1
10
124.344996
20
261.718370
70
0
0
VERTEX
8
Layer 1
10
124.439026
20
261.389708
70
0
0
VERTEX
8
Layer 1
10
124.532035
20
261.061048
70
0
0
VERTEX
8
Layer 1
10
124.625554
20
260.755640
70
0
0
VERTEX
8
Layer 1
10
124.718560
20
260.450750
70
0
0
VERTEX
8
Layer 1
10
124.814633
20
260.169112
70
0
0
VERTEX
8
Layer 1
10
124.940220
20
259.816680
70
0
0
VERTEX
8
Layer 1
10
125.001161
20
259.636330
70
0
0
VERTEX
8
Layer 1
10
125.070406
20
259.448746
70
0
0
VERTEX
8
Layer 1
10
125.240937
20
259.089077
70
0
0
VERTEX
8
Layer 1
10
125.454882
20
258.615203
70
0
0
VERTEX
8
Layer 1
10
125.567562
20
258.325818
70
0
0
VERTEX
8
Layer 1
10
125.605252
20
258.259665
70
0
0
VERTEX
8
Layer 1
10
125.872420
20
257.845222
70
0
0
VERTEX
8
Layer 1
10
127.108721
20
256.230443
70
0
0
VERTEX
8
Layer 1
10
128.584922
20
255.133765
70
0
0
VERTEX
8
Layer 1
10
128.732713
20
255.053670
70
0
0
VERTEX
8
Layer 1
10
128.800936
20
255.109478
70
0
0
VERTEX
8
Layer 1
10
129.206605
20
255.436590
70
0
0
VERTEX
8
Layer 1
10
129.452064
20
255.691871
70
0
0
VERTEX
8
Layer 1
10
128.740992
20
256.040686
70
0
0
VERTEX
8
Layer 1
10
128.625242
20
256.108377
70
0
0
VERTEX
8
Layer 1
10
127.985933
20
256.592628
70
0
0
VERTEX
8
Layer 1
10
127.183979
20
257.469014
70
0
0
VERTEX
8
Layer 1
10
126.852219
20
257.915500
70
0
0
VERTEX
8
Layer 1
10
126.180940
20
259.193971
70
0
0
VERTEX
8
Layer 1
10
126.138014
20
259.253407
70
0
0
VERTEX
8
Layer 1
10
126.059954
20
259.381047
70
0
0
VERTEX
8
Layer 1
10
125.945739
20
259.697821
70
0
0
VERTEX
8
Layer 1
10
125.584517
20
260.662102
70
0
0
VERTEX
8
Layer 1
10
125.420705
20
261.136491
70
0
0
VERTEX
8
Layer 1
10
125.327186
20
261.512178
70
0
0
VERTEX
8
Layer 1
10
125.233156
20
261.859959
70
0
0
VERTEX
8
Layer 1
10
125.140660
20
262.235649
70
0
0
VERTEX
8
Layer 1
10
125.047651
20
262.610819
70
0
0
VERTEX
8
Layer 1
10
124.976873
20
262.946715
70
0
0
VERTEX
8
Layer 1
10
124.944295
20
263.235068
70
0
0
VERTEX
8
Layer 1
10
125.314819
20
263.315684
70
0
0
VERTEX
8
Layer 1
10
125.898238
20
263.486735
70
0
0
VERTEX
8
Layer 1
10
126.789668
20
263.938386
70
0
0
VERTEX
8
Layer 1
10
127.119871
20
264.198317
70
0
0
VERTEX
8
Layer 1
10
127.097646
20
264.218981
70
0
0
VERTEX
8
Layer 1
10
126.953982
20
264.354374
70
0
0
VERTEX
8
Layer 1
10
126.854203
20
264.455140
70
0
0
VERTEX
8
Layer 1
10
126.794285
20
264.507337
70
0
0
VERTEX
8
Layer 1
10
126.759665
20
264.547128
70
0
0
VERTEX
8
Layer 1
10
126.680581
20
264.611728
70
0
0
VERTEX
8
Layer 1
10
126.574160
20
264.688732
70
0
0
VERTEX
8
Layer 1
10
126.533915
20
264.718704
70
0
0
VERTEX
8
Layer 1
10
126.465692
20
264.786395
70
0
0
VERTEX
8
Layer 1
10
126.265188
20
264.637049
70
0
0
VERTEX
8
Layer 1
10
125.817157
20
264.389005
70
0
0
VERTEX
8
Layer 1
10
125.486428
20
264.248445
70
0
0
VERTEX
8
Layer 1
10
125.096269
20
264.150782
70
0
0
VERTEX
8
Layer 1
10
124.834263
20
264.082568
70
0
0
VERTEX
8
Layer 1
10
124.833204
20
264.082568
70
0
0
VERTEX
8
Layer 1
10
124.833204
20
264.082038
70
0
0
VERTEX
8
Layer 1
10
124.201200
20
264.042248
70
0
0
VERTEX
8
Layer 1
10
123.569717
20
264.081517
70
0
0
VERTEX
8
Layer 1
10
123.569188
20
264.082046
70
0
0
VERTEX
8
Layer 1
10
123.568659
20
264.082575
70
0
0
VERTEX
8
Layer 1
10
123.309246
20
264.150266
70
0
0
VERTEX
8
Layer 1
10
122.811081
20
264.298062
70
0
0
VERTEX
8
Layer 1
10
122.524789
20
264.417950
70
0
0
VERTEX
8
Layer 1
10
122.087089
20
264.710955
70
0
0
VERTEX
8
Layer 1
10
122.015289
20
264.746091
70
0
0
VERTEX
8
Layer 1
10
121.924836
20
264.790017
70
0
0
VERTEX
8
Layer 1
10
121.689818
20
264.555123
70
0
0
SEQEND
8
Layer 1
0
POLYLINE
8
Layer 1
62
7
70
0
10
0.000000
20
0.000000
66
1
0
VERTEX
8
Layer 1
10
131.312294
20
263.409778
70
0
0
VERTEX
8
Layer 1
10
131.292609
20
263.352416
70
0
0
VERTEX
8
Layer 1
10
131.113799
20
263.024791
70
0
0
VERTEX
8
Layer 1
10
130.910715
20
262.787079
70
0
0
VERTEX
8
Layer 1
10
130.830610
20
262.708014
70
0
0
VERTEX
8
Layer 1
10
130.910715
20
262.655820
70
0
0
VERTEX
8
Layer 1
10
131.227490
20
262.445495
70
0
0
VERTEX
8
Layer 1
10
131.737027
20
262.106498
70
0
0
VERTEX
8
Layer 1
10
132.255342
20
261.765434
70
0
0
VERTEX
8
Layer 1
10
133.058389
20
261.213530
70
0
0
VERTEX
8
Layer 1
10
133.118306
20
261.178396
70
0
0
VERTEX
8
Layer 1
10
134.866009
20
259.988804
70
0
0
VERTEX
8
Layer 1
10
135.046365
20
259.863752
70
0
0
VERTEX
8
Layer 1
10
135.226720
20
259.739731
70
0
0
VERTEX
8
Layer 1
10
135.612218
20
259.433291
70
0
0
VERTEX
8
Layer 1
10
136.462815
20
258.567713
70
0
0
VERTEX
8
Layer 1
10
136.507786
20
257.947597
70
0
0
VERTEX
8
Layer 1
10
136.364647
20
257.093904
70
0
0
VERTEX
8
Layer 1
10
136.319676
20
257.016900
70
0
0
VERTEX
8
Layer 1
10
135.398797
20
256.108430
70
0
0
VERTEX
8
Layer 1
10
135.234986
20
256.007664
70
0
0
VERTEX
8
Layer 1
10
134.410220
20
255.615441
70
0
0
VERTEX
8
Layer 1
10
133.985961
20
255.498656
70
0
0
VERTEX
8
Layer 1
10
133.608719
20
255.388590
70
0
0
VERTEX
8
Layer 1
10
132.217589
20
255.328646
70
0
0
VERTEX
8
Layer 1
10
130.473503
20
255.406679
70
0
0
VERTEX
8
Layer 1
10
130.350471
20
255.451129
70
0
0
VERTEX
8
Layer 1
10
130.172709
20
255.473354
70
0
0
VERTEX
8
Layer 1
10
130.123650
20
255.382406
70
0
0
VERTEX
8
Layer 1
10
130.042013
20
255.280090
70
0
0
VERTEX
8
Layer 1
10
129.894209
20
255.115757
70
0
0
VERTEX
8
Layer 1
10
129.651853
20
254.850142
70
0
0
VERTEX
8
Layer 1
10
129.538149
20
254.758155
70
0
0
VERTEX
8
Layer 1
10
129.718504
20
254.708540
70
0
0
VERTEX
8
Layer 1
10
130.071971
20
254.599503
70
0
0
VERTEX
8
Layer 1
10
131.533380
20
254.447576
70
0
0
VERTEX
8
Layer 1
10
133.983879
20
254.603638
70
0
0
VERTEX
8
Layer 1
10
134.314094
20
254.697179
70
0
0
VERTEX
8
Layer 1
10
134.643786
20
254.793291
70
0
0
VERTEX
8
Layer 1
10
134.809155
20
254.864607
70
0
0
VERTEX
8
Layer 1
10
136.273159
20
255.685743
70
0
0
VERTEX
8
Layer 1
10
136.486053
20
255.877462
70
0
0
VERTEX
8
Layer 1
10
137.113070
20
256.622867
70
0
0
VERTEX
8
Layer 1
10
137.431744
20
257.521287
70
0
0
VERTEX
8
Layer 1
10
137.435581
20
258.338807
70
0
0
VERTEX
8
Layer 1
10
137.252646
20
258.956857
70
0
0
VERTEX
8
Layer 1
10
136.704165
20
259.608731
70
0
0
VERTEX
8
Layer 1
10
135.698726
20
260.446168
70
0
0
VERTEX
8
Layer 1
10
134.964923
20
260.992386
70
0
0
VERTEX
8
Layer 1
10
134.788195
20
261.092123
70
0
0
VERTEX
8
Layer 1
10
134.668231
20
261.187725
70
0
0
VERTEX
8
Layer 1
10
134.585572
20
261.262147
70
0
0
VERTEX
8
Layer 1
10
134.019706
20
261.633182
70
0
0
VERTEX
8
Layer 1
10
133.870883
20
261.716902
70
0
0
VERTEX
8
Layer 1
10
133.754623
20
261.814057
70
0
0
VERTEX
8
Layer 1
10
133.675539
20
261.882790
70
0
0
VERTEX
8
Layer 1
10
133.137078
20
262.224888
70
0
0
VERTEX
8
Layer 1
10
132.829604
20
262.422291
70
0
0
VERTEX
8
Layer 1
10
132.523153
20
262.620212
70
0
0
VERTEX
8
Layer 1
10
131.744901
20
263.127156
70
0
0
VERTEX
8
Layer 1
10
131.194952
20
263.445708
70
0
0
SEQEND
8
Layer 1
0
POLYLINE
8
Layer 1
62
7
70
0
10
0.000000
20
0.000000
66
1
0
VERTEX
8
Layer 1
10
110.619969
20
261.763886
70
0
0
VERTEX
8
Layer 1
10
110.568228
20
261.616609
70
0
0
VERTEX
8
Layer 1
10
110.475555
20
260.050151
70
0
0
VERTEX
8
Layer 1
10
110.570784
20
258.485023
70
0
0
VERTEX
8
Layer 1
10
110.648333
20
258.220956
70
0
0
VERTEX
8
Layer 1
10
110.743895
20
257.890743
70
0
0
VERTEX
8
Layer 1
10
110.837925
20
257.597223
70
0
0
VERTEX
8
Layer 1
10
110.901549
20
257.423074
70
0
0
VERTEX
8
Layer 1
10
110.902078
20
257.423074
70
0
0
VERTEX
8
Layer 1
10
110.902608
20
257.422545
70
0
0
VERTEX
8
Layer 1
10
110.903137
20
257.422545
70
0
0
VERTEX
8
Layer 1
10
110.903666
20
257.422545
70
0
0
VERTEX
8
Layer 1
10
110.904195
20
257.422545
70
0
0
VERTEX
8
Layer 1
10
110.904724
20
257.422016
70
0
0
VERTEX
8
Layer 1
10
110.999265
20
257.246833
70
0
0
VERTEX
8
Layer 1
10
111.244216
20
256.772443
70
0
0
VERTEX
8
Layer 1
10
111.426117
20
256.459802
70
0
0
VERTEX
8
Layer 1
10
112.506666
20
255.404055
70
0
0
VERTEX
8
Layer 1
10
112.772289
20
255.224220
70
0
0
VERTEX
8
Layer 1
10
113.007937
20
255.121901
70
0
0
VERTEX
8
Layer 1
10
113.219810
20
255.022687
70
0
0
VERTEX
8
Layer 1
10
113.219810
20
255.022158
70
0
0
VERTEX
8
Layer 1
10
113.702978
20
254.933271
70
0
0
VERTEX
8
Layer 1
10
114.765546
20
254.957084
70
0
0
VERTEX
8
Layer 1
10
115.472387
20
255.251597
70
0
0
VERTEX
8
Layer 1
10
115.566415
20
255.309987
70
0
0
VERTEX
8
Layer 1
10
115.567473
20
255.309987
70
0
0
VERTEX
8
Layer 1
10
116.555527
20
256.294940
70
0
0
VERTEX
8
Layer 1
10
116.826833
20
256.591045
70
0
0
VERTEX
8
Layer 1
10
116.895055
20
256.686647
70
0
0
VERTEX
8
Layer 1
10
116.977714
20
256.816354
70
0
0
VERTEX
8
Layer 1
10
117.154442
20
257.018408
70
0
0
VERTEX
8
Layer 1
10
117.921844
20
258.015245
70
0
0
VERTEX
8
Layer 1
10
118.073773
20
258.220400
70
0
0
VERTEX
8
Layer 1
10
118.580716
20
258.901495
70
0
0
VERTEX
8
Layer 1
10
118.782254
20
259.182096
70
0
0
VERTEX
8
Layer 1
10
118.982758
20
259.463734
70
0
0
VERTEX
8
Layer 1
10
119.209106
20
259.770174
70
0
0
VERTEX
8
Layer 1
10
119.467485
20
260.122088
70
0
0
VERTEX
8
Layer 1
10
119.888651
20
260.710682
70
0
0
VERTEX
8
Layer 1
10
119.781206
20
260.756161
70
0
0
VERTEX
8
Layer 1
10
119.463397
20
260.930828
70
0
0
VERTEX
8
Layer 1
10
119.244277
20
261.074489
70
0
0
VERTEX
8
Layer 1
10
119.134663
20
261.162344
70
0
0
VERTEX
8
Layer 1
10
118.993593
20
260.966492
70
0
0
VERTEX
8
Layer 1
10
118.640126
20
260.469880
70
0
0
VERTEX
8
Layer 1
10
118.498529
20
260.286429
70
0
0
VERTEX
8
Layer 1
10
118.380739
20
260.136569
70
0
0
VERTEX
8
Layer 1
10
117.938912
20
259.511801
70
0
0
VERTEX
8
Layer 1
10
117.557018
20
258.994520
70
0
0
VERTEX
8
Layer 1
10
117.355483
20
258.713917
70
0
0
VERTEX
8
Layer 1
10
116.659915
20
257.796663
70
0
0
VERTEX
8
Layer 1
10
116.494546
20
257.579623
70
0
0
VERTEX
8
Layer 1
10
116.305924
20
257.349660
70
0
0
VERTEX
8
Layer 1
10
116.117303
20
257.122804
70
0
0
VERTEX
8
Layer 1
10
115.788135
20
256.737299
70
0
0
VERTEX
8
Layer 1
10
114.863119
20
255.881537
70
0
0
VERTEX
8
Layer 1
10
114.142231
20
255.779739
70
0
0
VERTEX
8
Layer 1
10
113.569136
20
255.818500
70
0
0
VERTEX
8
Layer 1
10
113.323674
20
255.919790
70
0
0
VERTEX
8
Layer 1
10
113.124205
20
256.015913
70
0
0
VERTEX
8
Layer 1
10
113.123676
20
256.018030
70
0
0
VERTEX
8
Layer 1
10
113.123676
20
256.018559
70
0
0
VERTEX
8
Layer 1
10
113.036930
20
256.082117
70
0
0
VERTEX
8
Layer 1
10
112.261260
20
256.816954
70
0
0
VERTEX
8
Layer 1
10
111.709358
20
257.845314
70
0
0
VERTEX
8
Layer 1
10
111.639090
20
258.047884
70
0
0
VERTEX
8
Layer 1
10
111.457621
20
258.727984
70
0
0
VERTEX
8
Layer 1
10
111.408093
20
260.028124
70
0
0
VERTEX
8
Layer 1
10
111.479383
20
261.530355
70
0
0
VERTEX
8
Layer 1
10
111.443738
20
261.531942
70
0
0
VERTEX
8
Layer 1
10
111.094920
20
261.615662
70
0
0
VERTEX
8
Layer 1
10
110.849461
20
261.697309
70
0
0
VERTEX
8
Layer 1
10
110.654640
20
261.746924
70
0
0
VERTEX
8
Layer 1
10
110.620020
20
261.763990
70
0
0
VERTEX
8
Layer 1
10
110.502630
20
261.793369
70
0
0
SEQEND
8
Layer 1
0
POLYLINE
8
Layer 1
62
7
70
0
10
0.000000
20
0.000000
66
1
0
VERTEX
8
Layer 1
10
134.622587
20
262.593666
70
0
0
VERTEX
8
Layer 1
10
134.504724
20
262.898971
70
0
0
VERTEX
8
Layer 1
10
134.556823
20
263.140149
70
0
0
VERTEX
8
Layer 1
10
134.669051
20
263.361436
70
0
0
VERTEX
8
Layer 1
10
134.764031
20
263.596169
70
0
0
VERTEX
8
Layer 1
10
134.858323
20
263.830904
70
0
0
VERTEX
8
Layer 1
10
134.952615
20
264.065639
70
0
0
VERTEX
8
Layer 1
10
135.021412
20
264.300372
70
0
0
VERTEX
8
Layer 1
10
135.095940
20
264.537108
70
0
0
VERTEX
8
Layer 1
10
135.421594
20
266.140267
70
0
0
VERTEX
8
Layer 1
10
135.471237
20
266.366035
70
0
0
VERTEX
8
Layer 1
10
135.518386
20
267.382801
70
0
0
VERTEX
8
Layer 1
10
135.518386
20
268.370553
70
0
0
VERTEX
8
Layer 1
10
135.664812
20
268.506755
70
0
0
VERTEX
8
Layer 1
10
135.968698
20
268.644944
70
0
0
VERTEX
8
Layer 1
10
136.264531
20
268.503069
70
0
0
VERTEX
8
Layer 1
10
136.421384
20
267.927969
70
0
0
VERTEX
8
Layer 1
10
136.360821
20
266.300506
70
0
0
VERTEX
8
Layer 1
10
136.178780
20
265.098468
70
0
0
VERTEX
8
Layer 1
10
136.081495
20
264.722893
70
0
0
VERTEX
8
Layer 1
10
135.989997
20
264.394265
70
0
0
VERTEX
8
Layer 1
10
135.893308
20
264.077374
70
0
0
VERTEX
8
Layer 1
10
135.799659
20
263.807430
70
0
0
VERTEX
8
Layer 1
10
135.735490
20
263.655978
70
0
0
VERTEX
8
Layer 1
10
135.616991
20
263.315613
70
0
0
VERTEX
8
Layer 1
10
135.404986
20
262.857982
70
0
0
VERTEX
8
Layer 1
10
135.190658
20
262.541091
70
0
0
VERTEX
8
Layer 1
10
134.622587
20
262.593666
70
0
0
VERTEX
8
Layer 1
10
134.567136
20
262.740449
70
0
0
SEQEND
8
Layer 1
0
POLYLINE
8
Layer 1
62
7
70
0
10
0.000000
20
0.000000
66
1
0
VERTEX
8
Layer 1
10
131.750491
20
264.449303
70
0
0
VERTEX
8
Layer 1
10
131.498603
20
264.750452
70
0
0
VERTEX
8
Layer 1
10
131.506144
20
265.048608
70
0
0
VERTEX
8
Layer 1
10
131.606614
20
265.321324
70
0
0
VERTEX
8
Layer 1
10
131.701490
20
265.614887
70
0
0
VERTEX
8
Layer 1
10
131.793661
20
266.060881
70
0
0
VERTEX
8
Layer 1
10
131.892107
20
266.541448
70
0
0
VERTEX
8
Layer 1
10
131.935207
20
266.713327
70
0
0
VERTEX
8
Layer 1
10
132.327788
20
267.046072
70
0
0
VERTEX
8
Layer 1
10
132.749176
20
266.754517
70
0
0
VERTEX
8
Layer 1
10
132.796470
20
266.472834
70
0
0
VERTEX
8
Layer 1
10
132.686745
20
265.931775
70
0
0
VERTEX
8
Layer 1
10
132.597080
20
265.497518
70
0
0
VERTEX
8
Layer 1
10
132.504505
20
265.192364
70
0
0
VERTEX
8
Layer 1
10
132.401559
20
264.887209
70
0
0
VERTEX
8
Layer 1
10
132.359530
20
264.795732
70
0
0
VERTEX
8
Layer 1
10
132.136637
20
264.506594
70
0
0
VERTEX
8
Layer 1
10
131.721138
20
264.449303
70
0
0
VERTEX
8
Layer 1
10
131.506540
20
264.744832
70
0
0
SEQEND
8
Layer 1
0
POLYLINE
8
Layer 1
62
7
70
0
10
0.000000
20
0.000000
66
1
0
VERTEX
8
Layer 1
10
137.645903
20
260.317311
70
0
0
VERTEX
8
Layer 1
10
137.376158
20
260.639819
70
0
0
VERTEX
8
Layer 1
10
137.629803
20
261.333479
70
0
0
VERTEX
8
Layer 1
10
138.111479
20
262.413848
70
0
0
VERTEX
8
Layer 1
10
138.151095
20
262.492918
70
0
0
VERTEX
8
Layer 1
10
138.252923
20
262.751125
70
0
0
VERTEX
8
Layer 1
10
138.347241
20
263.009334
70
0
0
VERTEX
8
Layer 1
10
138.439255
20
263.279278
70
0
0
VERTEX
8
Layer 1
10
138.536834
20
263.596169
70
0
0
VERTEX
8
Layer 1
10
138.608454
20
263.830904
70
0
0
VERTEX
8
Layer 1
10
138.677909
20
264.065639
70
0
0
VERTEX
8
Layer 1
10
138.770672
20
264.464686
70
0
0
VERTEX
8
Layer 1
10
138.870253
20
264.910681
70
0
0
VERTEX
8
Layer 1
10
139.068341
20
266.910245
70
0
0
VERTEX
8
Layer 1
10
139.055985
20
268.754079
70
0
0
VERTEX
8
Layer 1
10
139.007283
20
268.996985
70
0
0
VERTEX
8
Layer 1
10
138.869414
20
270.074838
70
0
0
VERTEX
8
Layer 1
10
138.758422
20
270.520832
70
0
0
VERTEX
8
Layer 1
10
138.530841
20
271.387003
70
0
0
VERTEX
8
Layer 1
10
138.582485
20
271.873251
70
0
0
VERTEX
8
Layer 1
10
138.963688
20
272.032012
70
0
0
VERTEX
8
Layer 1
10
139.296131
20
271.869495
70
0
0
VERTEX
8
Layer 1
10
139.381973
20
271.741452
70
0
0
VERTEX
8
Layer 1
10
139.475352
20
271.389350
70
0
0
VERTEX
8
Layer 1
10
139.573793
20
271.013776
70
0
0
VERTEX
8
Layer 1
10
139.664674
20
270.614727
70
0
0
VERTEX
8
Layer 1
10
139.762276
20
270.168733
70
0
0
VERTEX
8
Layer 1
10
139.949331
20
268.772365
70
0
0
VERTEX
8
Layer 1
10
139.990257
20
266.802290
70
0
0
VERTEX
8
Layer 1
10
139.768322
20
264.839582
70
0
0
VERTEX
8
Layer 1
10
139.666283
20
264.358377
70
0
0
VERTEX
8
Layer 1
10
139.574102
20
263.948270
70
0
0
VERTEX
8
Layer 1
10
139.480157
20
263.631379
70
0
0
VERTEX
8
Layer 1
10
139.380430
20
263.244070
70
0
0
VERTEX
8
Layer 1
10
139.218352
20
262.798073
70
0
0
VERTEX
8
Layer 1
10
139.026545
20
262.297889
70
0
0
VERTEX
8
Layer 1
10
138.960135
20
262.118930
70
0
0
VERTEX
8
Layer 1
10
138.105449
20
260.412330
70
0
0
VERTEX
8
Layer 1
10
137.645909
20
260.317311
70
0
0
VERTEX
8
Layer 1
10
137.581326
20
260.391119
70
0
0
SEQEND
8
Layer 1
0
POLYLINE
8
Layer 1
62
7
70
0
10
0.000000
20
0.000000
66
1
0
VERTEX
8
Layer 1
10
123.118683
20
259.345812
70
0
0
VERTEX
8
Layer 1
10
122.600063
20
259.441903
70
0
0
VERTEX
8
Layer 1
10
122.105017
20
259.534174
70
0
0
VERTEX
8
Layer 1
10
121.685349
20
259.651368
70
0
0
VERTEX
8
Layer 1
10
121.261024
20
259.776381
70
0
0
VERTEX
8
Layer 1
10
121.114927
20
259.885183
70
0
0
VERTEX
8
Layer 1
10
121.020632
20
260.169046
70
0
0
VERTEX
8
Layer 1
10
121.114927
20
260.452912
70
0
0
VERTEX
8
Layer 1
10
121.266168
20
260.566495
70
0
0
VERTEX
8
Layer 1
10
121.630620
20
260.572818
70
0
0
VERTEX
8
Layer 1
10
121.904498
20
260.474042
70
0
0
VERTEX
8
Layer 1
10
122.340753
20
260.356506
70
0
0
VERTEX
8
Layer 1
10
122.990188
20
260.240732
70
0
0
VERTEX
8
Layer 1
10
123.564082
20
260.073376
70
0
0
VERTEX
8
Layer 1
10
123.719611
20
259.722613
70
0
0
VERTEX
8
Layer 1
10
123.490901
20
259.414784
70
0
0
VERTEX
8
Layer 1
10
123.118683
20
259.345817
70
0
0
VERTEX
8
Layer 1
10
123.031037
20
259.359655
70
0
0
SEQEND
8
Layer 1
0
POLYLINE
8
Layer 1
62
7
70
0
10
0.000000
20
0.000000
66
1
0
VERTEX
8
Layer 1
10
123.708020
20
255.903013
70
0
0
VERTEX
8
Layer 1
10
122.057870
20
256.059985
70
0
0
VERTEX
8
Layer 1
10
121.609973
20
256.155091
70
0
0
VERTEX
8
Layer 1
10
121.162075
20
256.250110
70
0
0
VERTEX
8
Layer 1
10
120.832044
20
256.343147
70
0
0
VERTEX
8
Layer 1
10
120.431294
20
256.459951
70
0
0
VERTEX
8
Layer 1
10
120.148411
20
256.553802
70
0
0
VERTEX
8
Layer 1
10
119.785608
20
256.676822
70
0
0
VERTEX
8
Layer 1
10
119.558637
20
256.765399
70
0
0
VERTEX
8
Layer 1
10
119.275815
20
256.880924
70
0
0
VERTEX
8
Layer 1
10
118.994081
20
257.069705
70
0
0
VERTEX
8
Layer 1
10
118.924302
20
257.337413
70
0
0
VERTEX
8
Layer 1
10
119.096908
20
257.622181
70
0
0
VERTEX
8
Layer 1
10
119.348006
20
257.744081
70
0
0
VERTEX
8
Layer 1
10
119.629792
20
257.657392
70
0
0
VERTEX
8
Layer 1
10
119.875435
20
257.561905
70
0
0
VERTEX
8
Layer 1
10
120.124838
20
257.469602
70
0
0
VERTEX
8
Layer 1
10
120.384146
20
257.377013
70
0
0
VERTEX
8
Layer 1
10
120.583105
20
257.308516
70
0
0
VERTEX
8
Layer 1
10
121.078150
20
257.165496
70
0
0
VERTEX
8
Layer 1
10
121.522989
20
257.046999
70
0
0
VERTEX
8
Layer 1
10
122.018034
20
256.952199
70
0
0
VERTEX
8
Layer 1
10
122.529342
20
256.847564
70
0
0
VERTEX
8
Layer 1
10
123.802315
20
256.778304
70
0
0
VERTEX
8
Layer 1
10
125.085771
20
256.739145
70
0
0
VERTEX
8
Layer 1
10
125.368530
20
256.446959
70
0
0
VERTEX
8
Layer 1
10
125.266020
20
256.035589
70
0
0
VERTEX
8
Layer 1
10
124.806336
20
255.919839
70
0
0
VERTEX
8
Layer 1
10
124.297360
20
255.904053
70
0
0
VERTEX
8
Layer 1
10
123.708020
20
255.903043
70
0
0
VERTEX
8
Layer 1
10
123.708020
20
255.903013
70
0
0
SEQEND
8
Layer 1
0
POLYLINE
8
Layer 1
62
7
70
0
10
0.000000
20
0.000000
66
1
0
VERTEX
8
Layer 1
10
123.495858
20
252.499678
70
0
0
VERTEX
8
Layer 1
10
121.397811
20
252.722588
70
0
0
VERTEX
8
Layer 1
10
120.761323
20
252.846877
70
0
0
VERTEX
8
Layer 1
10
120.219133
20
252.962967
70
0
0
VERTEX
8
Layer 1
10
119.891911
20
253.056693
70
0
0
VERTEX
8
Layer 1
10
119.538308
20
253.154836
70
0
0
VERTEX
8
Layer 1
10
119.205469
20
253.265244
70
0
0
VERTEX
8
Layer 1
10
118.157957
20
253.636843
70
0
0
VERTEX
8
Layer 1
10
117.948892
20
253.713854
70
0
0
VERTEX
8
Layer 1
10
117.142846
20
254.076694
70
0
0
VERTEX
8
Layer 1
10
116.706736
20
254.371015
70
0
0
VERTEX
8
Layer 1
10
116.654021
20
254.699738
70
0
0
VERTEX
8
Layer 1
10
116.718628
20
254.787154
70
0
0
VERTEX
8
Layer 1
10
116.986577
20
254.990013
70
0
0
VERTEX
8
Layer 1
10
117.225287
20
254.981417
70
0
0
VERTEX
8
Layer 1
10
117.272141
20
254.934473
70
0
0
VERTEX
8
Layer 1
10
117.755400
20
254.730408
70
0
0
VERTEX
8
Layer 1
10
118.380392
20
254.466082
70
0
0
VERTEX
8
Layer 1
10
118.616128
20
254.371110
70
0
0
VERTEX
8
Layer 1
10
118.851863
20
254.279285
70
0
0
VERTEX
8
Layer 1
10
119.181895
20
254.161384
70
0
0
VERTEX
8
Layer 1
10
119.582644
20
254.041918
70
0
0
VERTEX
8
Layer 1
10
119.889102
20
253.947528
70
0
0
VERTEX
8
Layer 1
10
120.219133
20
253.857339
70
0
0
VERTEX
8
Layer 1
10
120.596308
20
253.758657
70
0
0
VERTEX
8
Layer 1
10
121.091353
20
253.645813
70
0
0
VERTEX
8
Layer 1
10
121.727839
20
253.530060
70
0
0
VERTEX
8
Layer 1
10
124.188423
20
253.383723
70
0
0
VERTEX
8
Layer 1
10
126.678291
20
253.528040
70
0
0
VERTEX
8
Layer 1
10
127.314779
20
253.644770
70
0
0
VERTEX
8
Layer 1
10
127.809825
20
253.759278
70
0
0
VERTEX
8
Layer 1
10
128.569598
20
253.901627
70
0
0
VERTEX
8
Layer 1
10
128.828733
20
253.845522
70
0
0
VERTEX
8
Layer 1
10
128.962570
20
253.650542
70
0
0
VERTEX
8
Layer 1
10
128.911533
20
253.265570
70
0
0
VERTEX
8
Layer 1
10
128.506945
20
253.051146
70
0
0
VERTEX
8
Layer 1
10
128.187000
20
252.964590
70
0
0
VERTEX
8
Layer 1
10
126.442556
20
252.652298
70
0
0
VERTEX
8
Layer 1
10
125.664630
20
252.538231
70
0
0
VERTEX
8
Layer 1
10
123.495858
20
252.499664
70
0
0
VERTEX
8
Layer 1
10
123.495858
20
252.499678
70
0
0
SEQEND
8
Layer 1
0
POLYLINE
8
Layer 1
62
7
70
0
10
0.000000
20
0.000000
66
1
0
VERTEX
8
Layer 1
10
109.369357
20
262.951282
70
0
0
VERTEX
8
Layer 1
10
109.096072
20
263.189412
70
0
0
VERTEX
8
Layer 1
10
108.869155
20
263.948270
70
0
0
VERTEX
8
Layer 1
10
108.780943
20
264.229953
70
0
0
VERTEX
8
Layer 1
10
108.690440
20
264.699422
70
0
0
VERTEX
8
Layer 1
10
108.596994
20
265.192364
70
0
0
VERTEX
8
Layer 1
10
108.449563
20
266.671189
70
0
0
VERTEX
8
Layer 1
10
108.431387
20
268.009175
70
0
0
VERTEX
8
Layer 1
10
108.597412
20
269.840103
70
0
0
VERTEX
8
Layer 1
10
108.692165
20
270.309573
70
0
0
VERTEX
8
Layer 1
10
108.783250
20
270.755568
70
0
0
VERTEX
8
Layer 1
10
108.868393
20
271.037249
70
0
0
VERTEX
8
Layer 1
10
109.139014
20
271.999659
70
0
0
VERTEX
8
Layer 1
10
109.237494
20
272.278211
70
0
0
VERTEX
8
Layer 1
10
109.335170
20
272.536420
70
0
0
VERTEX
8
Layer 1
10
109.427430
20
272.809494
70
0
0
VERTEX
8
Layer 1
10
109.490941
20
272.962070
70
0
0
VERTEX
8
Layer 1
10
109.578857
20
273.138121
70
0
0
VERTEX
8
Layer 1
10
110.289564
20
274.539001
70
0
0
VERTEX
8
Layer 1
10
110.573620
20
274.685756
70
0
0
VERTEX
8
Layer 1
10
110.905298
20
274.567753
70
0
0
VERTEX
8
Layer 1
10
111.049033
20
274.291931
70
0
0
VERTEX
8
Layer 1
10
110.712412
20
273.525433
70
0
0
VERTEX
8
Layer 1
10
110.622438
20
273.302435
70
0
0
VERTEX
8
Layer 1
10
110.522934
20
273.102911
70
0
0
VERTEX
8
Layer 1
10
110.483249
20
273.053388
70
0
0
VERTEX
8
Layer 1
10
110.387777
20
272.795180
70
0
0
VERTEX
8
Layer 1
10
110.264015
20
272.445654
70
0
0
VERTEX
8
Layer 1
10
110.199177
20
272.304814
70
0
0
VERTEX
8
Layer 1
10
110.106038
20
272.069935
70
0
0
VERTEX
8
Layer 1
10
110.012246
20
271.812159
70
0
0
VERTEX
8
Layer 1
10
109.914038
20
271.483675
70
0
0
VERTEX
8
Layer 1
10
109.821008
20
271.178090
70
0
0
VERTEX
8
Layer 1
10
109.730605
20
270.817762
70
0
0
VERTEX
8
Layer 1
10
109.631061
20
270.383503
70
0
0
VERTEX
8
Layer 1
10
109.539709
20
270.004417
70
0
0
VERTEX
8
Layer 1
10
109.434717
20
269.417582
70
0
0
VERTEX
8
Layer 1
10
109.434717
20
265.567939
70
0
0
VERTEX
8
Layer 1
10
109.540563
20
264.981102
70
0
0
VERTEX
8
Layer 1
10
109.635080
20
264.582053
70
0
0
VERTEX
8
Layer 1
10
109.731434
20
264.183006
70
0
0
VERTEX
8
Layer 1
10
109.827321
20
263.826099
70
0
0
VERTEX
8
Layer 1
10
109.899325
20
263.497471
70
0
0
VERTEX
8
Layer 1
10
109.840397
20
263.114318
70
0
0
VERTEX
8
Layer 1
10
109.369362
20
262.951282
70
0
0
VERTEX
8
Layer 1
10
109.278036
20
263.036089
70
0
0
SEQEND
8
Layer 1
0
POLYLINE
8
Layer 1
62
7
70
0
10
0.000000
20
0.000000
66
1
0
VERTEX
8
Layer 1
10
112.265332
20
266.401042
70
0
0
VERTEX
8
Layer 1
10
112.092210
20
266.573823
70
0
0
VERTEX
8
Layer 1
10
111.985001
20
267.492759
70
0
0
VERTEX
8
Layer 1
10
112.033449
20
268.220437
70
0
0
VERTEX
8
Layer 1
10
112.179168
20
269.558422
70
0
0
VERTEX
8
Layer 1
10
112.273476
20
269.956191
70
0
0
VERTEX
8
Layer 1
10
112.372073
20
270.378712
70
0
0
VERTEX
8
Layer 1
10
112.457390
20
270.638200
70
0
0
VERTEX
8
Layer 1
10
112.727810
20
271.443392
70
0
0
VERTEX
8
Layer 1
10
112.794929
20
271.631180
70
0
0
VERTEX
8
Layer 1
10
112.912364
20
271.905766
70
0
0
VERTEX
8
Layer 1
10
113.028757
20
272.187927
70
0
0
VERTEX
8
Layer 1
10
113.148968
20
272.363978
70
0
0
VERTEX
8
Layer 1
10
113.478556
20
272.500823
70
0
0
VERTEX
8
Layer 1
10
113.814989
20
272.371665
70
0
0
VERTEX
8
Layer 1
10
113.915724
20
272.096680
70
0
0
VERTEX
8
Layer 1
10
113.765684
20
271.640413
70
0
0
VERTEX
8
Layer 1
10
113.642103
20
271.302663
70
0
0
VERTEX
8
Layer 1
10
113.603868
20
271.225036
70
0
0
VERTEX
8
Layer 1
10
113.502376
20
270.978565
70
0
0
VERTEX
8
Layer 1
10
113.400012
20
270.661673
70
0
0
VERTEX
8
Layer 1
10
113.150232
20
269.746210
70
0
0
VERTEX
8
Layer 1
10
113.061806
20
269.394108
70
0
0
VERTEX
8
Layer 1
10
112.935280
20
267.584879
70
0
0
VERTEX
8
Layer 1
10
112.935015
20
266.691115
70
0
0
VERTEX
8
Layer 1
10
112.805362
20
266.539985
70
0
0
VERTEX
8
Layer 1
10
112.555267
20
266.376931
70
0
0
VERTEX
8
Layer 1
10
112.265451
20
266.401034
70
0
0
VERTEX
8
Layer 1
10
112.219276
20
266.447167
70
0
0
SEQEND
8
Layer 1
0
POLYLINE
8
Layer 1
62
7
70
0
10
0.000000
20
0.000000
66
1
0
VERTEX
8
Layer 1
10
115.872884
20
268.014623
70
0
0
VERTEX
8
Layer 1
10
115.671505
20
268.246305
70
0
0
VERTEX
8
Layer 1
10
115.673357
20
268.746827
70
0
0
VERTEX
8
Layer 1
10
115.759822
20
269.202185
70
0
0
VERTEX
8
Layer 1
10
115.860340
20
269.593633
70
0
0
VERTEX
8
Layer 1
10
115.956696
20
269.910524
70
0
0
VERTEX
8
Layer 1
10
116.021633
20
270.086575
70
0
0
VERTEX
8
Layer 1
10
116.175096
20
270.403466
70
0
0
VERTEX
8
Layer 1
10
116.494950
20
270.553617
70
0
0
VERTEX
8
Layer 1
10
116.819869
20
270.412782
70
0
0
VERTEX
8
Layer 1
10
116.936949
20
270.152223
70
0
0
VERTEX
8
Layer 1
10
116.865623
20
269.793155
70
0
0
VERTEX
8
Layer 1
10
116.541263
20
268.455169
70
0
0
VERTEX
8
Layer 1
10
116.342222
20
268.067857
70
0
0
VERTEX
8
Layer 1
10
116.112787
20
267.947337
70
0
0
VERTEX
8
Layer 1
10
115.872760
20
268.014623
70
0
0
VERTEX
8
Layer 1
10
115.798952
20
268.093043
70
0
0
SEQEND
8
Layer 1
0
POLYLINE
8
Layer 1
62
7
70
0
10
0.000000
20
0.000000
66
1
0
VERTEX
8
Layer 1
10
126.824670
20
274.409474
70
0
0
VERTEX
8
Layer 1
10
126.527218
20
274.508747
70
0
0
VERTEX
8
Layer 1
10
126.169833
20
274.613110
70
0
0
VERTEX
8
Layer 1
10
125.563631
20
274.725498
70
0
0
VERTEX
8
Layer 1
10
124.967096
20
274.859650
70
0
0
VERTEX
8
Layer 1
10
124.768831
20
275.054403
70
0
0
VERTEX
8
Layer 1
10
124.721682
20
275.121626
70
0
0
VERTEX
8
Layer 1
10
124.753290
20
275.391501
70
0
0
VERTEX
8
Layer 1
10
125.034988
20
275.640507
70
0
0
VERTEX
8
Layer 1
10
125.313375
20
275.645881
70
0
0
VERTEX
8
Layer 1
10
125.805123
20
275.546583
70
0
0
VERTEX
8
Layer 1
10
126.522797
20
275.400277
70
0
0
VERTEX
8
Layer 1
10
126.959846
20
275.283089
70
0
0
VERTEX
8
Layer 1
10
127.126184
20
275.210294
70
0
0
VERTEX
8
Layer 1
10
127.193695
20
275.168572
70
0
0
VERTEX
8
Layer 1
10
127.456214
20
274.816471
70
0
0
VERTEX
8
Layer 1
10
127.193695
20
274.464369
70
0
0
VERTEX
8
Layer 1
10
127.126184
20
274.417422
70
0
0
VERTEX
8
Layer 1
10
126.824662
20
274.409472
70
0
0
VERTEX
8
Layer 1
10
126.805110
20
274.295307
70
0
0
SEQEND
8
Layer 1
0
POLYLINE
8
Layer 1
62
7
70
0
10
0.000000
20
0.000000
66
1
0
VERTEX
8
Layer 1
10
128.752769
20
277.337838
70
0
0
VERTEX
8
Layer 1
10
128.375592
20
277.492346
70
0
0
VERTEX
8
Layer 1
10
126.253967
20
278.056821
70
0
0
VERTEX
8
Layer 1
10
125.859119
20
278.142539
70
0
0
VERTEX
8
Layer 1
10
124.547783
20
278.212804
70
0
0
VERTEX
8
Layer 1
10
123.440431
20
278.243470
70
0
0
VERTEX
8
Layer 1
10
123.162826
20
278.347208
70
0
0
VERTEX
8
Layer 1
10
123.016871
20
278.645158
70
0
0
VERTEX
8
Layer 1
10
123.149136
20
278.950039
70
0
0
VERTEX
8
Layer 1
10
123.679540
20
279.073263
70
0
0
VERTEX
8
Layer 1
10
126.371834
20
278.929141
70
0
0
VERTEX
8
Layer 1
10
126.819730
20
278.822433
70
0
0
VERTEX
8
Layer 1
10
128.092705
20
278.502469
70
0
0
VERTEX
8
Layer 1
10
128.399159
20
278.401855
70
0
0
VERTEX
8
Layer 1
10
128.659043
20
278.309313
70
0
0
VERTEX
8
Layer 1
10
128.973373
20
278.174777
70
0
0
VERTEX
8
Layer 1
10
129.382024
20
277.961739
70
0
0
VERTEX
8
Layer 1
10
129.483544
20
277.679212
70
0
0
VERTEX
8
Layer 1
10
129.325866
20
277.353992
70
0
0
VERTEX
8
Layer 1
10
129.088474
20
277.245861
70
0
0
VERTEX
8
Layer 1
10
128.752763
20
277.337839
70
0
0
VERTEX
8
Layer 1
10
128.713557
20
277.220208
70
0
0
SEQEND
8
Layer 1
0
POLYLINE
8
Layer 1
62
7
70
0
10
0.000000
20
0.000000
66
1
0
VERTEX
8
Layer 1
10
130.921536
20
280.142966
70
0
0
VERTEX
8
Layer 1
10
130.068904
20
280.520517
70
0
0
VERTEX
8
Layer 1
10
129.846351
20
280.610154
70
0
0
VERTEX
8
Layer 1
10
129.471762
20
280.732746
70
0
0
VERTEX
8
Layer 1
10
129.294960
20
280.802740
70
0
0
VERTEX
8
Layer 1
10
129.047438
20
280.897613
70
0
0
VERTEX
8
Layer 1
10
128.720517
20
280.996183
70
0
0
VERTEX
8
Layer 1
10
128.296193
20
281.107613
70
0
0
VERTEX
8
Layer 1
10
127.856973
20
281.222695
70
0
0
VERTEX
8
Layer 1
10
126.466130
20
281.484826
70
0
0
VERTEX
8
Layer 1
10
123.318932
20
281.598442
70
0
0
VERTEX
8
Layer 1
10
121.492103
20
281.414404
70
0
0
VERTEX
8
Layer 1
10
121.020631
20
281.317708
70
0
0
VERTEX
8
Layer 1
10
120.596308
20
281.224551
70
0
0
VERTEX
8
Layer 1
10
120.193513
20
281.127942
70
0
0
VERTEX
8
Layer 1
10
119.608305
20
281.136220
70
0
0
VERTEX
8
Layer 1
10
119.441205
20
281.478098
70
0
0
VERTEX
8
Layer 1
10
119.552899
20
281.779950
70
0
0
VERTEX
8
Layer 1
10
119.939045
20
281.935689
70
0
0
VERTEX
8
Layer 1
10
120.267159
20
282.026542
70
0
0
VERTEX
8
Layer 1
10
120.644335
20
282.117800
70
0
0
VERTEX
8
Layer 1
10
121.232793
20
282.234860
70
0
0
VERTEX
8
Layer 1
10
122.034296
20
282.349813
70
0
0
VERTEX
8
Layer 1
10
122.753401
20
282.449196
70
0
0
VERTEX
8
Layer 1
10
125.678939
20
282.449414
70
0
0
VERTEX
8
Layer 1
10
126.489704
20
282.328864
70
0
0
VERTEX
8
Layer 1
10
128.210574
20
282.010678
70
0
0
VERTEX
8
Layer 1
10
128.551463
20
281.928559
70
0
0
VERTEX
8
Layer 1
10
128.952213
20
281.812779
70
0
0
VERTEX
8
Layer 1
10
129.353895
20
281.691078
70
0
0
VERTEX
8
Layer 1
10
129.624992
20
281.600322
70
0
0
VERTEX
8
Layer 1
10
129.884298
20
281.506402
70
0
0
VERTEX
8
Layer 1
10
130.143608
20
281.410099
70
0
0
VERTEX
8
Layer 1
10
130.273264
20
281.344422
70
0
0
VERTEX
8
Layer 1
10
130.591508
20
281.227201
70
0
0
VERTEX
8
Layer 1
10
131.098466
20
280.995220
70
0
0
VERTEX
8
Layer 1
10
131.452067
20
280.847661
70
0
0
VERTEX
8
Layer 1
10
131.768341
20
280.526303
70
0
0
VERTEX
8
Layer 1
10
131.761561
20
280.262604
70
0
0
VERTEX
8
Layer 1
10
131.583393
20
280.078517
70
0
0
VERTEX
8
Layer 1
10
131.291600
20
280.012830
70
0
0
VERTEX
8
Layer 1
10
130.921536
20
280.142966
70
0
0
VERTEX
8
Layer 1
10
130.921536
20
280.142966
70
0
0
SEQEND
8
Layer 1
 0 
ENDSEC
 0 
EOF