<?xml version="1.0" encoding="UTF-8" standalone="no"?>
<svg
   viewBox="0 0 793.7007874015749 1122.5196850393702"
   width="793.7007874015749"
   height="1122.5196850393702"
   version="1.1"
   id="svg36"
   sodipodi:docname="Montageplatte.svg"
   inkscape:version="1.4.3 (fcd0343856, 2026-01-01)"
   xmlns:inkscape="http://www.inkscape.org/namespaces/inkscape"
   xmlns:sodipodi="http://sodipodi.sourceforge.net/DTD/sodipodi-0.dtd"
   xmlns="http://www.w3.org/2000/svg"
   xmlns:svg="http://www.w3.org/2000/svg">
  <sodipodi:namedview
     id="namedview36"
     pagecolor="#ffffff"
     bordercolor="#000000"
     borderopacity="0.25"
     inkscape:showpageshadow="2"
     inkscape:pageopacity="0.0"
     inkscape:pagecheckerboard="0"
     inkscape:deskcolor="#d1d1d1"
     inkscape:zoom="1.7923963"
     inkscape:cx="497.0999"
     inkscape:cy="214.5173"
     inkscape:window-width="3374"
     inkscape:window-height="1371"
     inkscape:window-x="66"
     inkscape:window-y="32"
     inkscape:window-maximized="1"
     inkscape:current-layer="g36" />
  <desc
     id="desc1">Montageplatte.dxf - scale = 1.000000, origin = (0.000000, 0.000000), method = manual</desc>
  <defs
     id="defs4">
    <marker
       id="DistanceX"
       orient="auto"
       refX="0.0"
       refY="0.0"
       style="overflow:visible">
      <path
         d="M 3,-3 L -3,3 M 0,-5 L  0,5"
         style="stroke:#000000; stroke-width:0.5"
         id="path1" />
    </marker>
    <pattern
       id="Hatch"
       patternUnits="userSpaceOnUse"
       width="8"
       height="8"
       x="0"
       y="0">
      <path
         d="M8 4 l-4,4"
         stroke="#000000"
         stroke-width="0.25"
         linecap="square"
         id="path2" />
      <path
         d="M6 2 l-4,4"
         stroke="#000000"
         stroke-width="0.25"
         linecap="square"
         id="path3" />
      <path
         d="M4 0 l-4,4"
         stroke="#000000"
         stroke-width="0.25"
         linecap="square"
         id="path4" />
    </pattern>
  </defs>
  <g
     inkscape:groupmode="layer"
     inkscape:label="0"
     id="g4" />
  <g
     inkscape:groupmode="layer"
     inkscape:label="Layer 1"
     id="g36">
    <path
       d="M 11.434299,-0.557374 L 593.481543,-0.557374 L 597.820634,0.305726 L 601.499134,2.763621 L 603.957029,6.442122 L 604.820126,10.781208 L 604.820126,328.261523 L 603.957029,332.600614 L 601.499134,336.279114 L 597.820634,338.737009 L 593.481543,339.600106 L 11.434299,339.600106 L 7.095213,338.737009 L 3.416712,336.279114 L 0.958817,332.600614 L 0.095717,328.261523 L 0.095717,10.781208 L 0.958817,6.442122 L 3.416712,2.763621 L 7.095213,0.305726 L 11.434299,-0.557374 L 11.434299,-0.557374"
       style="fill:none;stroke:#000000"
       id="path5" />
    <path
       d="M 78.197843,113.578666 L 335.205717,113.578666 L 335.205717,226.964493 L 78.197843,226.964493 L 78.197843,113.578666"
       style="fill:none;stroke:#000000"
       id="path6" />
    <path
       d="M 417.090633,196.591102 L 412.571093,196.929713 L 408.224689,197.918706 L 404.111675,199.517828 L 400.292289,201.686823 L 396.826783,204.385436 L 393.775404,207.573411 L 391.198397,211.210492 L 389.156009,215.256423 L 387.739291,219.561513 L 386.989705,223.955539 L 386.893119,228.367427 L 387.435394,232.726118 L 388.602395,236.960538 L 390.379986,240.999632 L 392.754032,244.772326 L 395.710397,248.207558 L 399.145629,251.163923 L 402.918323,253.537969 L 406.957417,255.315560 L 411.191837,256.482561 L 415.550529,257.024837 L 419.962416,256.928251 L 424.356442,256.178665 L 428.661532,254.761946 L 432.707463,252.719558 L 436.344544,250.142551 L 439.532519,247.091172 L 442.231132,243.625667 L 444.400127,239.806280 L 445.999249,235.693266 L 446.988242,231.346862 L 447.326854,226.827322 L 446.740505,220.900981 L 445.025257,215.256423 L 442.246813,210.052252 L 438.470869,205.447087 L 433.865703,201.671142 L 428.661532,198.892698 L 423.016974,197.177450 L 417.090633,196.591102 L 417.090633,196.591102"
       style="fill:none;stroke:#000000"
       id="path7" />
    <path
       d="M 527.385562,196.333096 L 522.866022,196.671708 L 518.519618,197.660700 L 514.406604,199.259822 L 510.587218,201.428818 L 507.121712,204.127431 L 504.070333,207.315405 L 501.493327,210.952486 L 499.450938,214.998418 L 498.034220,219.303507 L 497.284634,223.697533 L 497.188048,228.109421 L 497.730323,232.468112 L 498.897324,236.702532 L 500.674915,240.741626 L 503.048961,244.514321 L 506.005327,247.949552 L 509.440558,250.905917 L 513.213252,253.279963 L 517.252346,255.057555 L 521.486767,256.224556 L 525.845458,256.766831 L 530.257346,256.670245 L 534.651371,255.920659 L 538.956461,254.503941 L 543.002392,252.461552 L 546.639473,249.884546 L 549.827448,246.833167 L 552.526061,243.367661 L 554.695056,239.548275 L 556.294178,235.435260 L 557.283171,231.088857 L 557.621783,226.569317 L 557.035434,220.642976 L 555.320186,214.998418 L 552.541742,209.794246 L 548.765798,205.189081 L 544.160632,201.413136 L 538.956461,198.634692 L 533.311903,196.919444 L 527.385562,196.333096 L 527.385562,196.333096"
       style="fill:none;stroke:#000000"
       id="path8" />
    <path
       d="M 28.798760,300.686313 L 25.474031,301.184164 L 22.499384,302.597208 L 20.055549,304.804679 L 18.323278,307.685809 L 17.510914,310.947976 L 17.678045,314.236944 L 18.782268,317.339512 L 20.781173,320.042483 L 23.484144,322.041388 L 26.586712,323.145611 L 29.875680,323.312742 L 33.137851,322.500382 L 36.018977,320.768107 L 38.226448,318.324276 L 39.639492,315.349625 L 40.137343,312.024896 L 39.274246,307.685809 L 36.816351,304.007308 L 33.137851,301.549410 L 28.798760,300.686313 L 28.798760,300.686313"
       style="fill:none;stroke:#000000"
       id="path9" />
    <path
       d="M 578.806753,16.856334 L 575.482023,17.354185 L 572.507373,18.767229 L 570.063541,20.974700 L 568.331267,23.855826 L 567.518906,27.117997 L 567.686037,30.406964 L 568.790260,33.509533 L 570.789165,36.212504 L 573.492136,38.211409 L 576.594705,39.315632 L 579.883672,39.482763 L 583.145839,38.670399 L 586.026969,36.938128 L 588.234440,34.494293 L 589.647485,31.519646 L 590.145335,28.194917 L 589.282239,23.855826 L 586.824340,20.177325 L 583.145839,17.719431 L 578.806753,16.856334 L 578.806753,16.856334"
       style="fill:none;stroke:#000000"
       id="path10" />
    <path
       d="M 30.445833,16.856338 L 27.121104,17.354188 L 24.146453,18.767233 L 21.702622,20.974704 L 19.970347,23.855830 L 19.157987,27.118001 L 19.325117,30.406968 L 20.429340,33.509533 L 22.428246,36.212508 L 25.131216,38.211413 L 28.233785,39.315632 L 31.522753,39.482767 L 34.784920,38.670403 L 37.666050,36.938128 L 39.873521,34.494297 L 41.286565,31.519646 L 41.784416,28.194920 L 40.921319,23.855830 L 38.463420,20.177329 L 34.784920,17.719434 L 30.445833,16.856338 L 30.445833,16.856338"
       style="fill:none;stroke:#000000"
       id="path11" />
    <path
       d="M 576.713650,299.494658 L 573.388921,299.992509 L 570.414270,301.405553 L 567.970439,303.613024 L 566.238164,306.494154 L 565.425804,309.756321 L 565.592935,313.045289 L 566.697158,316.147858 L 568.696063,318.850828 L 571.399034,320.849734 L 574.501603,321.953957 L 577.790570,322.121087 L 581.052737,321.308727 L 583.933867,319.576452 L 586.141338,317.132621 L 587.554382,314.157970 L 588.052233,310.833241 L 587.189136,306.494154 L 584.731238,302.815654 L 581.052737,300.357755 L 576.713650,299.494658 L 576.713650,299.494658"
       style="fill:none;stroke:#000000"
       id="path12" />
    <path
       d="m 439.31236,61.933867 -0.98046,0.173813 -1.42971,0.177755 -4.45115,0.537112 -1.15825,0.353492 -4.09764,1.605468 -1.56057,0.787109 -0.57813,0.433599 -0.36698,0.27733 -3.73244,3.701171 -0.25785,0.458985 -0.4708,0.863279 -0.35925,0.748047 h -0.002 l -0.34766,1.808599 0.0883,3.718798 1.17145,2.660103 3.59966,3.427733 4.93947,3.548829 0.55664,0.400373 0.97264,0.695312 2.67386,1.777342 2.29294,1.523441 1.0215,0.705078 0.87698,0.486327 0.2873,0.267572 0.26558,0.265602 c 0.88327,-0.962321 0.89633,-0.982173 2.30039,-2.484341 l -7.0957,-4.744138 -0.38871,-0.224637 -0.38871,-0.220694 -1.3047,-0.931642 -2.07226,-1.50195 -0.78712,-0.539059 -0.42395,-0.269545 -1.43749,-1.167964 -3.37113,-3.238285 -0.40029,-2.599608 0.47852,-2.919915 0.63279,-0.982428 0.16611,-0.201173 2.67188,-2.570306 2.22857,-1.289064 1.52344,-0.722657 1.6035,-0.44725 1.75589,-0.50781 h 11.79494 l 1.58597,0.415997 0.58381,0.04885 0.45921,0.214098 0.19972,-0.69922 0.19314,-1.054702 0.33405,-1.346654 -0.34413,-0.166295 -1.42576,-0.417971 -5.20122,-0.482422 -1.83788,-0.177759 -0.97853,-0.173813 -0.008,1.21e-4"
       style="fill:none;stroke:#000000"
       id="path13"
       sodipodi:nodetypes="ccccccccccccccccccccccccccccccccccccccccccccccccccccccccccc" />
    <path
       d="m 507.27747,63.972926 -1.39065,0.06448 -2.61858,0.7778 -2.52402,1.894076 -1.58008,1.400391 -0.16031,0.289066 -0.29696,0.47461 -2.91212,3.517576 -0.7129,0.919926 -1.73242,2.281247 -0.9453,1.242184 -0.71682,0.972661 -0.74805,1.064451 -1.86521,2.492186 -0.75786,1.064451 -1.10651,1.478981 c 2.49545,1.987045 0.52608,0.417485 2.63566,1.928183 l 1.41029,-1.897416 0.4452,-0.57422 0.53323,-0.669921 2.93553,-4.019532 0.451,-0.593748 4.18556,-5.431639 0.62498,-0.792967 4.23245,-4.111329 0.57814,-0.349598 0.002,-0.002 v -0.002 -0.002 l 0.002,-0.002 0.002,-0.002 2.22267,-0.132797 2.2207,0.144533 0.002,0.002 0.002,0.002 0.002,0.002 v 0.002 0.0019 0.002 l 0.57616,0.269541 2.69199,1.756014 2.54047,3.064297 1.67579,3.957029 0.15838,0.476584 0.55082,5.596055 0.28557,3.972683 3.13421,1.230479 0.0705,-6.814879 -0.62502,-4.435544 -0.002,-0.002 h -0.002 -0.002 l -0.002,-0.002 -0.34766,-1.150386 -0.38485,-1.152344 h -0.002 l -0.002,-0.002 -0.16224,-0.269545 -1.67578,-3.330073 -0.465,-0.798834 -2.87696,-3.134763 -0.68359,-0.666013 -0.17576,-0.138667 -1.02537,-0.519526 -1.38282,-0.648439 -0.63087,-0.27541 -3.65234,-0.41797 h -0.002 l -0.001,-8e-6"
       style="fill:none;stroke:#000000"
       id="path14"
       sodipodi:nodetypes="ccccccccccccccccccccccccccccccccccccccccccccccccccccccccccccccccccccc" />
    <path
       d="m 455.84406,66.090272 -2.40495,2.837685 0.4592,0.277335 1.98438,1.818361 2.32229,2.578121 0.23033,0.339836 2.0332,2.98828 2.10939,4.339843 0.73048,1.716797 0.35539,1.109375 0.22839,0.54492 h 0.01 0.002 l 0.002,0.002 0.002,0.002 0.002,0.002 0.35345,1.015623 0.36504,1.197267 0.36119,1.242184 0.338,1.150393 0.002,0.002 0.91213,3.726565 0.36118,1.351563 0.0972,0.757198 -0.5757,0.346314 -0.7129,0.1992 -0.88867,0.267575 -3.90782,1.725645 2.14902,2.416858 1.59671,-0.708942 6.16406,-0.853511 1.4668,0.150398 1.47853,0.388687 1.10938,0.333974 v 0.002 0.002 l 0.004,0.002 v 0.0019 0.002 0.002 0.002 l 0.002,0.0058 0.66602,0.318346 2.93558,1.812508 0.30082,-0.33008 0.62304,-0.89258 0.45534,-0.703124 0.53318,-0.648439 0.49025,-0.400373 0.38292,-0.365227 0.15017,-0.138667 1.04105,-1.335938 0.26944,-0.492185 0.26751,-0.314453 0.26364,-0.316422 0.30662,-0.558596 0.84376,-1.142577 1.16018,-1.615234 0.88867,-1.214842 0.9961,-1.412111 -0.99026,-0.791018 -1.15429,-0.976558 -0.39257,-0.384748 -0.32014,0.455089 -1.29495,1.800782 -1.11131,1.566407 -1.11131,1.570314 -1.8008,2.453121 -0.48436,0.69922 -0.51957,0.724611 -1.08789,0.05078 -1.32228,-0.51953 -1.24608,-0.374986 -0.80662,-0.271465 -0.002,-0.002 -1.69143,-0.283196 -1.59959,-0.142564 -0.0526,-0.666009 -0.17576,-0.658205 v -0.002 h -0.004 -0.002 v -0.002 l -0.002,-0.002 h -0.002 -0.002 -0.002 -0.002 l -0.002,-0.0019 h -0.002 -0.002 l -0.002,-0.002 h -0.002 l -0.35539,-1.593748 -0.35153,-1.591797 -0.002,-0.002 -0.002,-0.002 h -0.002 -0.002 l -0.002,-0.002 -0.0145,-0.002 -0.002,-0.0019 h -0.002 v -0.002 l -0.23033,-0.779293 -0.46693,-1.769537 -0.34766,-1.308594 -0.14824,-0.492185 -0.38484,-1.056643 -0.35925,-1.064451 -0.35346,-1.10742 -0.34573,-0.929688 -0.002,-0.002 h -0.004 -0.004 v -0.002 h -0.004 -0.002 l -0.002,-0.002 h -0.002 l -0.33221,-0.884764 -0.38098,-0.886719 -0.26944,-0.615231 -0.36118,-0.820317 -0.25205,-0.371089 -1.0625,-2.273442 -0.3496,-0.666014 -0.38098,-0.57617 -0.26944,-0.400373 -0.54491,-0.947263 -0.42395,-0.673829 -0.75979,-1.013673 -0.66408,-0.876952 -4.79881,-4.605468 -0.42396,-0.310556"
       style="fill:none;stroke:#000000"
       id="path15"
       sodipodi:nodetypes="ccccccccccccccccccccccccccccccccccccccccccccccccccccccccccccccccccccccccccccccccccccccccccccccccccccccccccccccccccccccccccccccccccccccc" />
    <path
       d="m 486.2912,85.439717 v 0"
       style="fill:none;stroke:#000000"
       id="path18"
       sodipodi:nodetypes="cc" />
    <path
       d="m 516.6278,92.166815 -1.27204,2.677198 -0.66211,0.976558 -2.77587,3.022598 -2.53081,1.942251 -0.22261,0.18165 -0.7129,0.48437 -0.70899,0.40821 -0.004,0.008 v 0.002 0.002 0.002 0.002 l -0.002,0.002 -1.37892,0.79492 -1.4414,0.82227 -0.27137,0.1328 -0.90629,0.35157 -1.33005,0.55468 -0.81642,0.34181 -1.24609,0.44336 -1.25004,0.44725 -1.07027,0.35744 -1.06645,0.34767 -4.54299,1.23242 -1.60543,0.41408 -1.78129,0.39258 -1.96091,0.37499 -0.5647,-0.053 -0.1482,-0.62088 -0.15645,-0.50195 -0.2733,-0.73829 -0.36119,-1.19726 -0.72656,-1.4375 -0.72657,-1.25586 c -0.0378,-0.062 -0.0648,-0.12994 -0.0973,-0.19491 -1.51425,1.23217 -1.55091,1.10897 -2.73841,2.02557 l 0.62662,1.02281 0.34767,0.71094 0.50198,1.45899 0.41973,3.41992 -0.41973,3.41992 -0.50783,1.45703 -0.002,0.002 -0.35152,0.75391 -0.38099,0.66601 -0.14244,0.19334 -1.46289,1.93945 0.6172,0.55664 0.69533,0.60547 0.35925,0.29882 0.35539,0.22267 0.49609,0.27541 0.16997,0.084 0.30469,0.2168 1.45511,0.86327 1.23044,0.77735 0.69141,0.44336 0.76563,0.44336 0.32642,0.22266 0.76563,0.56641 0.80078,0.49023 2.68164,1.73633 1.00002,0.63476 0.13471,-0.17968 0.64453,-0.99219 0.91015,-1.55078 -0.45727,-0.33594 -0.77731,-0.5 -0.668,-0.48633 -0.19701,-0.13674 -1.34569,-0.79883 -1.24222,-0.79883 -1.84764,-1.24414 -0.58525,-0.35317 c -0.79878,-0.39711 -0.66568,-0.30692 -1.45703,-0.79994 0.40683,0.24074 -0.13651,-0.0515 -1.24665,-0.80761 l 0.32603,-0.64906 1.10938,-2.65234 0.2733,-0.77735 0.29117,-1.59765 0.13472,-1.5 0.7129,-0.12501 4.98834,-1.02735 1.51561,-0.37306 1.33595,-0.33786 1.51561,-0.44336 1.51368,-0.44139 1.06641,-0.34373 1.07032,-0.35546 0.70899,-0.26758 1.24608,-0.44922 1.4766,-0.54687 0.75781,-0.33595 v -0.002 -0.002 -0.006 l 0.57535,-0.28096 c 0.0759,0.2173 -0.61038,0.13251 0.18255,-0.065 l 0.84569,-0.33984 1.07032,-0.59961 4.5918,-2.69727 3.72661,-3.269528 2.0078,-2.417968 0.53322,-0.748048 0.39451,-0.664059 0.35345,-0.451196 0.14631,-0.187518 0.50585,-1.306635 c -1.54395,-1.201672 -2.31587,-1.816979 -3.26336,-2.255864"
       style="fill:none;stroke:#000000"
       id="path19"
       sodipodi:nodetypes="cccccccccccccccccccccccccccccccccccccccccccccccccccccccccccccccccccccccccccccccccccccccccccccccccccccccccccccc" />
    <path
       d="m 446.07237,93.956144 c -0.58883,0.945189 -1.46471,2.355768 -1.95652,3.108553 l 2.13866,1.384766 2.76174,1.771487 1.08007,0.7168 0.61329,0.38282 0.61136,0.38282 1.57617,1.06055 1.24009,1.01604 -0.30063,1.00153 -0.451,1.06446 -0.35345,0.88672 -0.4708,2.10547 -0.50392,1.9707 -0.002,0.002 h -0.002 l -0.002,0.002 -3.65823,0.71874 -1.8711,0.42971 -1.51562,0.42186 -4.36524,1.17774 -1.15825,0.38085 -0.98046,0.3457 -1.06834,0.39456 -7.36919,3.35547 -1.21484,0.67187 -0.66602,0.44336 -0.70116,0.44335 -0.44327,0.31056 -0.93556,0.75 -4.43361,4.42969 -0.21681,0.40234 -1.21484,1.87109 -0.39064,0.57617 -0.13085,0.18358 -0.30083,0.84375 -0.22898,0.60743 c 1.04614,0.53151 2.07549,0.93944 3.00985,1.34426 0.21019,-0.61229 0.0475,-0.0424 0.10565,-0.22903 l 0.2424,-0.62109 0.73048,-1.28516 0.74998,-1.19726 h 0.004 0.004 l 0.13086,-0.20704 2.30081,-2.58788 1.9824,-1.81836 0.49807,-0.31056 0.66795,-0.53515 2.51954,-1.46095 0.22453,-0.14256 v -0.002 l 0.002,-0.002 v -0.002 l 2.99613,-1.44921 0.21101,-0.15819 0.48635,-0.2793 1.20117,-0.44533 1.52151,-0.53711 0.98436,-0.35546 0.97655,-0.34768 1.33594,-0.44139 1.33594,-0.36522 0.98051,-0.2656 1.69138,-0.43163 1.8711,-0.45312 1.69534,-0.3633 1.72267,-0.38672 0.8242,-0.0742 0.56447,1.08398 0.26558,1.06445 0.26557,0.57422 1.27539,2.66992 0.72736,0.94441 2.33426,-2.48355 -0.48573,-0.72449 -0.39064,-0.75391 -0.34766,-0.84179 -0.48774,-4.3492 0.52637,-3.99065 0.16224,-0.33008 1.31055,-2.60741 0.47272,-0.61915 0.62106,-0.77539 -0.0193,-0.0178 -0.2366,-0.17775 -0.26172,-0.18752 -0.2168,-0.14843 -0.20329,-0.16602 -0.24626,-0.19334 -0.17383,-0.14453 -0.26558,-0.20117 -0.32014,-0.23829 -0.2873,-0.17579 -0.33608,-0.17381 -0.46693,-0.25978 -0.20908,-0.24022 -0.86717,-0.51367 -2.21877,-1.429689 -1.16018,-0.759768 -1.2949,-0.832026 -1.10938,-0.789067 v -0.002 -0.002 -0.002 -0.0019 -0.002 -0.0019 l -0.57813,-0.355465 -0.75781,-0.398449 -2.17164,-1.388549"
       style="fill:none;stroke:#000000"
       id="path20"
       sodipodi:nodetypes="ccccccccccccccccccccccccccccccccccccccccccccccccccccccccccccccccccccccccccccccccccccccccccccccccccccccccccccccc" />
    <path
       d="m 460.81844,121.73853 -0.48045,0.48438 -0.55081,0.57031 -0.37905,0.42773 -0.27909,0.3535 -0.465,0.47461 -0.48828,0.46287 -0.35925,0.48634 -1.30465,1.78515 -1.28519,1.77734 -0.75781,1.06641 -0.7129,0.9707 -0.63087,0.88672 -1.15819,1.61719 -0.25399,0.3281 c 0,0 2.23773,1.58146 2.75298,1.93585 0.13769,-0.1048 0.021,-0.21749 0.17372,-0.24619 l 0.75781,-1.13672 1.02541,-1.44531 0.57813,-0.72657 0.31048,-0.41797 0.75588,-1.13671 1.02735,-1.43555 0.71092,-0.97266 0.7129,-0.97851 0.82296,-0.79109 1.40165,0.46688 5.06057,1.25 0.87937,0.3197 0.4683,1.6842 0.48045,2.39648 0.33414,1.15235 0.35539,1.24219 0.35153,1.24218 0.35346,1.1543 0.35152,1.15234 0.36311,1.06446 0.47466,1.33203 0.23033,0.68164 0.26171,0.70898 0.64453,1.35938 0.80861,1.79102 0.42588,1.09374 0.14245,0.25003 1.00977,1.5664 4.4891,5.97027 3.98432,3.20136 2.36844,-2.35133 -0.43748,-0.25584 -2.41629,-1.83024 -3.03101,-3.31233 -1.2539,-1.68751 -2.53712,-4.83202 -0.16224,-0.22464 -0.29503,-0.48242 -0.43168,-1.19726 -1.36525,-3.64453 -0.61913,-1.79297 -0.35346,-1.41992 -0.35539,-1.31445 -0.34959,-1.41993 -0.35153,-1.41797 -0.26751,-1.26953 -0.12313,-1.08984 1.40041,-0.30469 2.20505,-0.64649 2.25337,-1.11425 -2.12177,-2.57088 -0.43805,0.27497 -1.25,0.53125 -1.47462,0.36912 -0.99026,0.25782 h -0.004 v 0.002 l -2.38868,0.15039 -2.38671,-0.14842 -0.002,-0.002 -0.002,-0.002 -0.98046,-0.25584 -1.88283,-0.5586 -1.08205,-0.45312 -1.6543,-1.10742 -0.27137,-0.1328 -0.34187,-0.16602 -0.88826,0.88779"
       style="fill:none;stroke:#000000"
       id="path21"
       sodipodi:nodetypes="ccccccccccccccccccccccccccccccccccccccccccccccccccccccccccccccccccccccccccccccccccccc" />
    <path
       d="m 499.07023,128.34042 -2.18508,2.81736 1.0192,0.72334 1.95899,1.28906 3.03514,2.08594 0.22646,0.13279 6.6055,4.4961 0.68166,0.47264 0.68166,0.46874 1.457,1.1582 3.21486,3.27148 0.16997,2.34375 -0.541,3.22656 -0.16997,0.29104 -3.48049,3.43359 -0.61913,0.38085 -3.11723,1.48242 -1.6035,0.44139 -1.4258,0.416 -5.25782,0.22656 -6.59183,-0.29493 -0.465,-0.168 -0.67186,-0.084 -0.18542,0.34374 -0.30855,0.38671 -0.55863,0.6211 -0.91599,1.0039 -0.42975,0.34767 0.68166,0.18752 1.33594,0.41211 5.52344,0.57421 9.26174,-0.58984 1.24806,-0.35354 1.24608,-0.36326 0.62502,-0.26954 5.53325,-3.10351 0.80464,-0.72461 2.36983,-2.81728 1.20444,-3.39561 0.0145,-3.08984 -0.69141,-2.33594 -2.073,-2.46378 -3.80009,-3.16512 -2.77343,-2.06445 -0.66795,-0.37696 -0.45341,-0.36133 -0.31241,-0.28128 -2.13871,-1.40234 -0.56248,-0.31642 -0.43941,-0.3672 -0.2989,-0.25978 -2.03513,-1.29297 -1.16211,-0.74609 -1.15824,-0.74805 -1.99995,-1.28836"
       style="fill:none;stroke:#000000"
       id="path22"
       sodipodi:nodetypes="ccccccccccccccccccccccccccccccccccccccccccccccccccccccc" />
    <path
       d="m 417.92949,136.58463 -0.28996,4.28771 0.26632,4.69626 0.2931,0.99805 0.36118,1.24805 0.35539,1.10937 0.24047,0.6582 h 0.002 l 0.002,0.002 h 0.002 0.002 0.002 l 0.002,0.002 0.35732,0.66211 0.9258,1.79297 0.6875,1.18164 4.08397,3.99023 1.00393,0.67969 0.89064,0.38672 0.80078,0.37498 v 0.002 l 1.82615,0.33595 4.01601,-0.09 2.67153,-1.11312 0.35538,-0.22069 h 0.004 l 3.73438,-3.72266 1.02541,-1.11914 0.25785,-0.36133 0.31241,-0.49023 0.66795,-0.76367 2.90042,-3.76758 0.57422,-0.77539 1.91601,-2.57422 0.76172,-1.06054 0.75781,-1.06446 0.85549,-1.1582 0.8022,-1.19059 -2.67372,-1.94214 -0.81413,1.18153 -0.44519,0.5664 -1.6699,2.36133 -1.44338,1.95508 -0.76171,1.06055 -2.62892,3.46679 -0.62502,0.82031 -0.7129,0.86915 -0.7129,0.85741 -1.2441,1.45703 -3.49613,3.23438 -2.72462,0.38475 -2.16603,-0.1465 -0.92773,-0.38283 -0.7539,-0.3633 -0.002,-0.008 v -0.002 l -0.32786,-0.24022 -2.93167,-2.77734 -2.08593,-3.88672 -0.26558,-0.76562 -0.68587,-2.57046 0.19637,-7.63374 c 0,0 -1.6857,0.10914 -3.95945,-0.41579"
       style="fill:none;stroke:#000000"
       id="path23"
       sodipodi:nodetypes="ccccccccccccccccccccccccccccccccccccccccccccccccccccccccccccccc" />
    <path
       d="m 508.81042,130.03985 -0.44547,-1.15391 0.19691,-0.91154 0.42417,-0.83636 0.35898,-0.88718 0.35638,-0.88719 0.35638,-0.88719 0.26002,-0.88718 0.28168,-0.89475 1.23082,-6.05919 0.18763,-0.8533 0.1782,-3.8429 v -3.73324 l 0.55342,-0.51478 1.14855,-0.52229 1.11811,0.53622 0.59283,2.17361 -0.2289,6.15105 -0.68803,4.54314 -0.36769,1.4195 -0.34582,1.24206 -0.36544,1.1977 -0.35395,1.02026 -0.24253,0.57242 -0.44787,1.28642 -0.80128,1.72963 -0.81006,1.1977 -2.14704,-0.19871 -0.20958,-0.55477"
       style="fill:none;stroke:#000000"
       id="path25"
       sodipodi:nodetypes="ccccccccccccccccccccccccccccc" />
    <path
       d="m 497.95524,123.02641 -0.95202,-1.1382 0.0285,-1.12689 0.37973,-1.03074 0.35859,-1.10953 0.34836,-1.68565 0.37208,-1.81632 0.1629,-0.64962 1.48377,-1.25762 1.59265,1.10194 0.17875,1.06463 -0.41471,2.04495 -0.33889,1.64129 -0.34989,1.15334 -0.38909,1.15334 -0.15885,0.34574 -0.84243,1.09281 -1.57039,0.21653 -0.81108,-1.11696"
       style="fill:none;stroke:#000000"
       id="path26"
       sodipodi:nodetypes="ccccccccccccccccccc" />
    <path
       d="m 520.23714,138.64341 -1.01951,-1.21893 0.95866,-2.62171 1.82051,-4.08329 0.14973,-0.29885 0.38486,-0.9759 0.35648,-0.97591 0.34777,-1.02026 0.3688,-1.1977 0.27069,-0.88719 0.26251,-0.88719 0.3506,-1.50821 0.37637,-1.68565 0.74868,-7.55742 -0.0467,-6.96883 -0.18407,-0.91807 -0.52108,-4.07378 -0.4195,-1.68565 -0.86015,-3.273721 0.19519,-1.837788 1.44077,-0.600045 1.25648,0.614241 0.32444,0.483942 0.35293,1.330779 0.37206,1.419496 0.34349,1.508217 0.36889,1.685649 0.70698,5.27762 0.15468,7.44596 -0.83881,7.41812 -0.38566,1.81873 -0.3484,1.55001 -0.35507,1.1977 -0.37692,1.46385 -0.61258,1.68566 -0.72494,1.89046 -0.251,0.67638 -3.23031,6.45015 -1.73685,0.35913 -0.24409,-0.27896"
       style="fill:none;stroke:#000000"
       id="path27"
       sodipodi:nodetypes="cccccccccccccccccccccccccccccccccccccccc" />
    <path
       d="m 465.33104,142.31522 -1.96014,-0.36318 -1.87104,-0.34874 -1.58615,-0.44294 -1.60375,-0.47249 -0.55218,-0.41122 -0.35639,-1.07287 0.35639,-1.07288 0.57162,-0.42929 1.37746,-0.0239 1.03513,0.37333 1.64884,0.44423 2.45456,0.43757 2.16905,0.63253 0.58783,1.32572 -0.86442,1.16345 -1.40681,0.26066 -0.33126,-0.0523"
       style="fill:none;stroke:#000000"
       id="path28"
       sodipodi:nodetypes="cccccccccccccccccc" />
    <path
       d="M 467.558460,155.327391 L 461.321666,154.734111 L 459.628823,154.374652 L 457.935980,154.015525 L 456.688615,153.663889 L 455.173969,153.222425 L 454.104801,152.867713 L 452.733577,152.402755 L 451.875734,152.067976 L 450.806797,151.631346 L 449.741975,150.917839 L 449.478244,149.906030 L 450.130613,148.829741 L 451.079645,148.369013 L 452.144666,148.696660 L 453.073081,149.057556 L 454.015706,149.406418 L 454.995772,149.756360 L 455.747743,150.015247 L 457.618783,150.555795 L 459.300064,151.003657 L 461.171104,151.361957 L 463.103607,151.757431 L 467.914851,152.019201 L 472.765716,152.167204 L 473.834411,153.271529 L 473.446972,154.826317 L 471.709580,155.263797 L 469.785891,155.323461 L 467.558460,155.327278 L 467.558460,155.327391"
       style="fill:none;stroke:#000000"
       id="path29" />
    <path
       d="M 466.756588,168.190405 L 458.826951,167.347911 L 456.421323,166.878157 L 454.372097,166.439391 L 453.135352,166.085148 L 451.798900,165.714214 L 450.540922,165.296923 L 446.581818,163.892455 L 445.791651,163.601386 L 442.745174,162.230022 L 441.096881,161.117628 L 440.897643,159.875206 L 441.141827,159.544815 L 442.154547,158.778104 L 443.056762,158.810593 L 443.233848,158.988019 L 445.060339,159.759288 L 447.422517,160.758319 L 448.313488,161.117269 L 449.204459,161.464324 L 450.451824,161.909934 L 451.966469,162.361459 L 453.124736,162.718209 L 454.372097,163.059080 L 455.797644,163.432052 L 457.668684,163.858552 L 460.074300,164.296044 L 469.374157,164.849129 L 478.784697,164.303679 L 481.190324,163.862494 L 483.061364,163.429708 L 485.932951,162.891693 L 486.912359,163.103743 L 487.418200,163.840679 L 487.225304,165.295691 L 485.696152,166.106113 L 484.486911,166.433257 L 477.893726,167.613574 L 474.953529,168.044693 L 466.756588,168.190458 L 466.756588,168.190405"
       style="fill:none;stroke:#000000"
       id="path30" />
    <path
       d="m 413.36502,128.68823 -1.03289,-0.90002 -0.85764,-2.86813 -0.3334,-1.06463 -0.34206,-1.77437 -0.35318,-1.86309 -0.55722,-5.58927 -0.0687,-5.05696 0.6275,-6.92005 0.35812,-1.77438 0.34426,-1.685651 0.3218,-1.064621 1.02282,-3.637463 0.37221,-1.052795 0.36917,-0.975908 0.3487,-1.032091 0.24004,-0.576669 0.33228,-0.665389 2.68614,-5.294672 1.0736,-0.554665 1.25359,0.445996 0.54325,1.04248 -1.27227,2.897004 -0.34006,0.842827 -0.37608,0.754107 -0.14999,0.187173 -0.36084,0.975908 -0.46776,1.321044 -0.24506,0.532308 -0.35202,0.887732 -0.35449,0.974275 -0.37118,1.241514 -0.35161,1.154971 -0.34168,1.36187 -0.37623,1.641295 -0.34527,1.43277 -0.39682,2.21796 v 14.54985 l 0.40005,2.21797 0.35723,1.50822 0.36417,1.50821 0.36241,1.34894 0.27214,1.24206 -0.22272,1.44814 -1.78029,0.6162 -0.34517,-0.32053"
       style="fill:none;stroke:#000000"
       id="path31"
       sodipodi:nodetypes="cccccccccccccccccccccccccccccccccccccccccccccc" />
    <path
       d="m 424.31045,115.64975 -0.65432,-0.65303 -0.4052,-3.47315 0.18311,-2.75028 0.55075,-5.05696 0.35644,-1.50338 0.37265,-1.59693 0.32246,-0.980746 1.02206,-3.043249 0.25368,-0.70975 0.44385,-1.037805 0.43991,-1.066439 0.45434,-0.66539 1.24569,-0.517209 1.27156,0.488156 0.38073,1.039313 -0.56708,1.724478 -0.46708,1.276535 -0.14451,0.293394 -0.38359,0.931547 -0.38689,1.197702 -0.94405,3.460023 -0.33421,1.33078 -0.47821,6.83804 -0.001,3.37801 -0.49003,0.5712 -0.94524,0.61627 -1.09537,-0.0911 -0.17452,-0.17436"
       style="fill:none;stroke:#000000"
       id="path32"
       sodipodi:nodetypes="ccccccccccccccccccccccccccccc" />
    <path
       d="m 437.94531,109.55117 -0.76112,-0.87565 0.007,-1.89174 0.3268,-1.72104 0.37991,-1.47949 0.36418,-1.1977 0.24543,-0.66539 0.58002,-1.1977 1.2089,-0.567502 1.22804,0.532292 0.44251,0.98479 -0.26958,1.35711 -1.22593,5.05696 -0.75228,1.46386 -0.86716,0.45551 -0.90719,-0.25431 -0.27896,-0.29639"
       style="fill:none;stroke:#000000"
       id="path33"
       sodipodi:nodetypes="ccccccccccccccccc" />
    <path
       d="m 479.33794,85.381625 -1.12423,-0.375209 -1.35075,-0.394442 -2.29116,-0.424774 -2.25462,-0.507031 -0.74935,-0.736075 -0.1782,-0.254074 0.11946,-1.02 1.06469,-0.941126 1.05217,-0.02031 1.85858,0.375299 2.71247,0.552968 1.65184,0.442915 0.62868,0.275131 0.25516,0.157689 0.9922,1.330779 -0.9922,1.330779 -0.25516,0.177438 -1.13961,0.03005 -0.0739,0.431488"
       style="fill:none;stroke:#000000"
       id="path34"
       sodipodi:nodetypes="cccccccccccccccccccc" />
    <path
       d="m 486.62525,74.313778 -1.42555,-0.583971 -8.01875,-2.133449 -1.49234,-0.323974 -4.95624,-0.265568 -4.18527,-0.115903 -1.04922,-0.392081 -0.55164,-1.126114 0.4999,-1.152306 2.00468,-0.465729 10.17561,0.544714 1.69284,0.403305 4.81125,1.209313 1.15825,0.380277 0.98224,0.349762 1.18802,0.508486 1.54451,0.805183 0.3837,1.067818 -0.59595,1.229182 -0.89723,0.408684 -1.26883,-0.347633 -0.14818,0.44459"
       style="fill:none;stroke:#000000"
       id="path35"
       sodipodi:nodetypes="cccccccccccccccccccccc" />
    <path
       d="M 494.822177,63.711704 L 491.599627,62.284740 L 490.758482,61.945954 L 489.342709,61.482614 L 488.674481,61.218066 L 487.738964,60.859491 L 486.503354,60.486943 L 484.899609,60.065790 L 483.239562,59.630835 L 477.982825,58.640100 L 466.087888,58.210685 L 459.183330,58.906265 L 457.401388,59.271730 L 455.797644,59.623820 L 454.275269,59.988956 L 452.063456,59.957669 L 451.431893,58.665532 L 451.854047,57.524670 L 453.313497,56.936050 L 454.553616,56.592669 L 455.979163,56.247757 L 458.203260,55.805322 L 461.232567,55.370854 L 463.950448,54.995233 L 475.007611,54.994409 L 478.071923,55.450031 L 484.576010,56.652627 L 485.864409,56.962998 L 487.379055,57.400592 L 488.897227,57.860564 L 489.921846,58.203579 L 490.901904,58.558556 L 491.881973,58.922536 L 492.372011,59.170764 L 493.574827,59.613804 L 495.490889,60.490583 L 496.827337,61.048286 L 498.022704,62.262871 L 497.997078,63.259529 L 497.323688,63.955291 L 496.220844,64.203557 L 494.822177,63.711704 L 494.822177,63.711704"
       style="fill:none;stroke:#000000"
       id="path36" />
  </g>
</svg>
